<svg width="68" height="22" viewBox="0 0 68 22" fill="none" xmlns="http://www.w3.org/2000/svg">
<path d="M9.94593 16.0574C9.94593 15.2143 9.95509 12.9606 9.9343 12.6829C9.95242 9.32942 7.51415 6.96382 5.97376 7.14823C4.90786 7.24073 4.01456 7.67536 3.53491 8.92569C3.09036 10.0909 3.4878 11.6409 4.96584 12.0046C6.54628 12.3951 7.46914 12.7201 8.13702 13.1786C8.95537 13.7399 9.62344 14.8122 9.64118 16.0587" fill="#0060AF"/>
<path d="M10.5768 21.1547C7.79008 21.1547 4.92613 20.4683 2.066 19.1108L1.99582 19.0763L1.96225 19.0048C0.67875 16.2955 0 13.3322 0 10.433C0 7.53814 0.650906 4.70166 1.93536 1.99601L1.97064 1.92411L2.04216 1.88825C4.68793 0.634885 7.53414 0 10.5043 0C13.2712 0 16.2261 0.706784 19.0483 2.0475L19.1208 2.07973L19.1541 2.15296C20.4622 4.9122 21.152 7.87475 21.152 10.7259C21.152 13.566 20.4897 16.405 19.1801 19.1625L19.1455 19.235L19.0727 19.2686C16.4674 20.5019 13.5292 21.1547 10.5768 21.1547ZM2.33071 18.7393C5.10922 20.0463 7.88028 20.7063 10.5768 20.7063C13.436 20.7063 16.2795 20.0814 18.8106 18.8967C20.068 16.2246 20.7054 13.4745 20.7054 10.7259C20.7054 7.96629 20.0402 5.09568 18.7819 2.41768C16.043 1.13017 13.1827 0.447414 10.5043 0.447414C7.62873 0.447414 4.87254 1.05732 2.30668 2.26053C1.07505 4.88303 0.448178 7.63102 0.448178 10.433C0.448178 13.2403 1.09965 16.1121 2.33071 18.7393Z" fill="#0060AF"/>
<path d="M9.28543 16.059C9.29058 14.9782 8.68736 14.0225 7.89895 13.5089C7.1996 13.055 6.26072 12.7568 4.74607 12.3727C4.27787 12.2529 3.78812 11.9869 3.6365 11.6478C3.23543 12.0519 3.16258 12.9604 3.23314 13.4914C3.31515 14.1059 4.03318 15.1186 5.11434 15.1582C5.77459 15.1847 6.60934 15.0161 7.00965 14.9311C7.70022 14.7819 8.79282 15.2145 8.96675 16.0576" fill="#0060AF"/>
<path d="M10.5043 1.92146C8.67117 1.92146 7.08768 3.1304 7.0934 5.22233C7.09912 6.98148 8.51383 7.92322 9.01865 8.59587C9.78151 9.6095 10.1944 10.8093 10.2373 12.6451C10.2707 14.1062 10.269 15.5489 10.2764 16.0602H10.6811C10.6741 15.5252 10.6557 13.9936 10.6767 12.5999C10.7042 10.7635 11.1319 9.6095 11.8952 8.59587C12.4044 7.92322 13.8179 6.98148 13.821 5.22233C13.8279 3.1304 12.2453 1.92146 10.4137 1.92146" fill="#0060AF"/>
<path d="M10.9698 16.0574C10.9698 15.2143 10.9602 12.9606 10.9806 12.6829C10.9627 9.32942 13.3994 6.96382 14.9412 7.14823C16.0071 7.24073 16.8994 7.67536 17.3804 8.92569C17.8246 10.0909 17.4248 11.6409 15.9485 12.0046C14.3673 12.3951 13.4456 12.7201 12.776 13.1786C11.9586 13.7399 11.3373 14.8122 11.3182 16.0587" fill="#0060AF"/>
<path d="M11.6297 16.059C11.624 14.9782 12.227 14.0225 13.0131 13.5089C13.7153 13.055 14.6553 12.7568 16.1687 12.3727C16.6378 12.2529 17.127 11.9869 17.2759 11.6478C17.6789 12.0519 17.7516 12.9604 17.681 13.4914C17.5973 14.1059 16.8812 15.1186 15.8019 15.1582C15.1419 15.1847 14.3027 15.0161 13.9041 14.9311C13.2162 14.7819 12.1206 15.2145 11.9459 16.0576" fill="#0060AF"/>
<path d="M12.1951 19.5479L11.9606 17.8362L12.5268 17.7504C12.6647 17.7315 12.8325 17.7555 12.8996 17.8419C12.9738 17.9321 12.9965 18.0067 13.0108 18.1249C13.0322 18.2712 12.9899 18.4404 12.8251 18.5247V18.5298C13.0091 18.5298 13.1203 18.662 13.1525 18.8851C13.1573 18.9322 13.1712 19.0461 13.1573 19.1411C13.1199 19.367 12.9851 19.4397 12.7576 19.4716L12.1951 19.5479ZM12.5596 19.2414C12.6267 19.2318 12.6948 19.2282 12.748 19.1943C12.8295 19.1411 12.822 19.0272 12.8108 18.9427C12.7824 18.757 12.7339 18.6864 12.5369 18.7156L12.4131 18.7347L12.4915 19.2509L12.5596 19.2414ZM12.441 18.4505C12.5159 18.4383 12.6176 18.4293 12.6599 18.3582C12.682 18.3107 12.7105 18.2729 12.6918 18.1673C12.6687 18.042 12.6271 17.9644 12.4681 17.9945L12.3199 18.0183L12.3782 18.457" fill="#0060AF"/>
<path d="M14.648 18.5184C14.6524 18.5502 14.6576 18.5857 14.6595 18.6175C14.7052 18.9298 14.648 19.1882 14.2971 19.2593C13.7784 19.3592 13.679 19.0369 13.5876 18.5857L13.539 18.3416C13.4675 17.9098 13.4368 17.5829 13.9426 17.4822C14.2277 17.4302 14.4161 17.5436 14.4945 17.8274C14.5067 17.8698 14.5219 17.9117 14.5277 17.9542L14.2174 18.0183C14.1815 17.9117 14.134 17.7212 13.9944 17.7372C13.7438 17.7673 13.8266 18.0792 13.8524 18.2094L13.9456 18.678C13.9736 18.8197 14.0293 19.0461 14.2462 19.0024C14.4222 18.9671 14.3455 18.6929 14.3299 18.5806" fill="#0060AF"/>
<path d="M15.1459 19.0365L15.0386 17.2651L15.4555 17.1379L16.3295 18.6785L16.0013 18.7767L15.7942 18.3852L15.4297 18.4946L15.4768 18.9398L15.1459 19.0365ZM15.3992 18.2086L15.6626 18.1323L15.3128 17.4156" fill="#0060AF"/>
<path d="M4.84878 17.6967C4.97923 17.279 5.09614 16.9716 5.5939 17.1081C5.86033 17.1825 6.02548 17.3 6.01766 17.6095C6.01638 17.6784 5.99363 17.7485 5.97876 17.8166L5.66885 17.731C5.70947 17.5601 5.73522 17.4245 5.52467 17.3597C5.28132 17.2929 5.22201 17.588 5.18844 17.7153L5.06238 18.1797C5.02233 18.3176 4.97427 18.5455 5.18844 18.6043C5.36542 18.6519 5.4728 18.4782 5.53688 18.2246L5.32004 18.1671L5.39499 17.8984L5.90476 18.0625L5.66275 18.9575L5.42817 18.8938L5.481 18.7046H5.47432C5.36637 18.8593 5.23459 18.8755 5.11921 18.8533C4.60943 18.7154 4.66264 18.3823 4.78432 17.9372" fill="#0060AF"/>
<path d="M6.74629 18.4534L6.59277 19.1815L6.24719 19.1067L6.61546 17.4065L7.20457 17.5396C7.54938 17.614 7.65351 17.7675 7.60469 18.0836C7.57685 18.2649 7.4874 18.4604 7.26903 18.4446L7.26675 18.4416C7.45136 18.5063 7.46699 18.5993 7.43476 18.7603C7.42085 18.8288 7.32491 19.2443 7.39109 19.3115L7.39338 19.3624L7.03579 19.2691C7.02092 19.1539 7.07146 18.9468 7.09148 18.8322C7.1117 18.7307 7.14393 18.5877 7.04094 18.5339C6.96027 18.491 6.93033 18.4931 6.83917 18.4721L6.74629 18.4534ZM6.80522 18.19L7.03789 18.2527C7.17921 18.2731 7.25778 18.1999 7.28563 18.0292C7.3108 17.8726 7.27819 17.8114 7.15136 17.7811L6.90191 17.7306" fill="#0060AF"/>
<path d="M8.96273 17.786L9.30449 17.8257L9.15726 19.0209C9.08574 19.3998 8.93927 19.5656 8.52237 19.5137C8.09823 19.4601 7.99753 19.2669 8.02328 18.8849L8.17146 17.6906L8.51589 17.7301L8.36809 18.8977C8.35245 19.0245 8.32308 19.2123 8.54869 19.235C8.74875 19.2503 8.79414 19.1177 8.81665 18.953" fill="#0060AF"/>
<path d="M9.68127 19.5788L9.78407 17.8696L10.4407 17.898C10.751 17.9133 10.8322 18.1667 10.8225 18.4086C10.8135 18.5556 10.7676 18.7198 10.6394 18.8089C10.5343 18.8846 10.3993 18.9025 10.274 18.8964L10.06 18.8845L10.0173 19.6009L9.68127 19.5788ZM10.0698 18.6239L10.2437 18.6336C10.385 18.6387 10.4786 18.5829 10.4909 18.3754C10.4977 18.1761 10.4224 18.1423 10.2393 18.1343L10.1014 18.1296" fill="#0060AF"/>
<path d="M55.9927 3.57312L53.383 8.30987C52.398 7.51002 51.1951 6.92128 49.6605 6.92128C46.0287 6.92128 44.5535 9.62847 44.5535 11.5354C44.5535 12.9509 45.4804 15.0394 48.7119 15.0394C50.0682 15.0394 51.9965 14.0957 52.5515 13.6664L49.9704 19.1619C48.7401 19.4073 48.336 19.5595 47.2945 19.5917C41.5107 19.7643 39.1735 16.2113 39.1752 12.5807C39.1791 7.78121 43.4463 1.94424 50.5202 1.94424C50.9537 1.94424 51.4839 2.09414 51.9372 2.26025L52.3953 1.67438" fill="#0060AF"/>
<path d="M66.761 1.82352L67.5 19.0396H62.0002L61.997 16.087H58.2468L57.0125 19.0396H51.0479L57.2837 6.74584L55.8775 6.73668L58.5492 1.82352H66.761ZM61.9613 7.09027L59.841 12.0978H62.0252" fill="#0060AF"/>
<path d="M35.7032 1.82371C38.4268 1.83896 39.9658 3.31737 39.9658 5.45299C39.9658 7.42172 38.3427 9.16446 36.5608 10.0656C38.3953 10.7399 38.554 12.3953 38.554 13.5665C38.554 16.3959 35.7148 19.0398 32.0243 19.0398H23.9758L27.1154 6.91728L25.8258 6.90984L28.462 1.82371C28.462 1.82371 33.4884 1.80845 35.7032 1.82371ZM33.0311 8.80382C33.5945 8.80382 34.5892 8.66117 34.8379 7.57085C35.1105 6.3873 34.1769 6.35544 33.7291 6.35544L32.129 6.34843L31.571 8.80387L33.0311 8.80382ZM30.7689 11.8461L30.0321 14.6755H31.9162C32.6575 14.6755 33.6677 14.3076 33.9152 13.3869C34.1597 12.4634 33.4535 11.8461 32.7149 11.8461" fill="#0060AF"/>
</svg>
