<svg width="68" height="20" viewBox="0 0 68 20" fill="none" xmlns="http://www.w3.org/2000/svg">
<path fill-rule="evenodd" clip-rule="evenodd" d="M0 6.86371L5.69447 14.0471L0 18.7658V6.86371Z" fill="#F15A23"/>
<path fill-rule="evenodd" clip-rule="evenodd" d="M2.29187 18.7661L6.57668 15.1816L9.53824 18.7661H2.29187Z" fill="#F15A23"/>
<path fill-rule="evenodd" clip-rule="evenodd" d="M0 3.02058L1.48605 4.90036L7.59611 12.5354L9.576 10.9587C9.576 10.9587 7.93233 9.02366 6.82869 6.8643C4.67093 2.6425 6.19857 0.0140076 6.19857 0.0140076H0V3.02058Z" fill="#F15A23"/>
<path fill-rule="evenodd" clip-rule="evenodd" d="M8.46698 13.7138L10.4834 12.0483C10.4834 12.0483 12.4091 14.5833 14.6421 15.1816C17.5683 15.9657 18.8639 14.0474 18.8639 14.0474V18.7661H12.4367L13.886 17.5131C13.886 17.5131 13.1299 18.0171 11.2806 16.7362C10.1891 15.9802 8.46698 13.7138 8.46698 13.7138Z" fill="#F15A23"/>
<path fill-rule="evenodd" clip-rule="evenodd" d="M8.65243 0C8.65243 0 8.00918 0.876276 8.46706 3.02032C8.95647 5.312 10.9029 7.7375 10.8983 7.6832C10.8983 7.6832 11.0235 5.27479 12.4368 3.86145C15.4494 0.848909 18.864 2.64225 18.864 2.64225V0.0137493L8.65243 0Z" fill="#F15A23"/>
<path fill-rule="evenodd" clip-rule="evenodd" d="M18.8639 5.81845C18.8639 5.81845 16.9588 4.18661 15.3025 4.18661C13.1837 4.18661 12.0272 6.01585 12.0272 7.34277C12.0272 9.27552 12.9549 10.3495 13.886 11.2806C15.2241 12.6187 16.852 14.0619 18.8639 12.9004C18.8639 10.7019 18.8639 5.81845 18.8639 5.81845Z" fill="#F15A23"/>
<path fill-rule="evenodd" clip-rule="evenodd" d="M40.5605 0.19693H45.0562C45.0562 0.19693 49.0388 6.22711 50.996 8.71852C52.9532 11.2099 55.06 14.0477 55.06 14.0477C55.06 14.0477 55.06 5.81843 55.06 1.54738C55.06 1.0075 53.6425 0.19693 53.6425 0.19693H58.8266C58.8266 0.19693 57.1256 0.895801 57.1256 1.54738C57.1256 6.86438 57.1256 19.7325 57.1256 19.7325C57.1256 19.7325 55.4934 18.8273 53.6425 16.6766C51.5629 14.2601 44.1652 4.50397 44.1652 4.50397C44.1652 4.50397 44.1652 13.7141 44.1652 17.1404C44.1652 17.7875 45.5827 18.7664 45.5827 18.7664H40.5605C40.5605 18.7664 41.9376 17.7796 41.9376 17.1404C41.9376 12.5355 41.9376 5.81843 41.9376 1.54738C41.9376 0.973527 40.5605 0.19693 40.5605 0.19693Z" fill="#005E6A"/>
<path fill-rule="evenodd" clip-rule="evenodd" d="M61.7301 0.19693H67.5C67.5 0.19693 65.9507 0.930805 65.9507 1.54738C65.9507 5.81843 65.9507 12.9003 65.9507 17.1404C65.9507 17.8142 67.5 18.7664 67.5 18.7664H61.7301C61.7301 18.7664 63.1726 17.7925 63.1726 17.1404C63.1726 12.0486 63.1726 5.81843 63.1726 1.54738C63.1726 0.954594 61.7301 0.19693 61.7301 0.19693Z" fill="#005E6A"/>
<path fill-rule="evenodd" clip-rule="evenodd" d="M23.585 0.19693C23.585 0.19693 25.0809 0.942795 25.0809 1.54738C25.0809 5.81843 25.0809 12.0486 25.0809 17.1404C25.0809 17.8032 23.585 18.7664 23.585 18.7664C23.585 18.7664 31.0581 18.7664 32.133 18.7664C32.6672 18.7664 38.6507 17.788 38.6507 13.1749C38.6507 8.56187 34.0028 8.12992 34.0028 8.12992C34.0028 8.12992 36.8343 7.34275 36.8343 4.18659C36.8343 0.7846 32.6672 0.19693 32.133 0.19693C31.0227 0.19693 23.585 0.19693 23.585 0.19693ZM28.1261 7.82421V2.01881C28.1261 2.01881 30.6038 2.01881 31.5987 2.01881C32.133 2.01881 34.0028 2.64258 34.0028 4.95685C34.0028 6.86438 32.133 7.82421 31.5987 7.82421C30.3875 7.82421 28.1261 7.82421 28.1261 7.82421ZM28.1261 9.34682C28.1261 9.34682 31.5987 9.34682 32.133 9.34682C32.6672 9.34682 35.8192 10.1656 35.8192 12.9003C35.8192 15.6885 32.6672 16.6766 32.133 16.6766C31.5987 16.6766 28.1261 16.6766 28.1261 16.6766V9.34682Z" fill="#005E6A"/>
</svg>
