<svg width="68" height="26" viewBox="0 0 68 26" fill="none" xmlns="http://www.w3.org/2000/svg">
<path d="M21.6304 0.000274658H3.89538C1.74493 0.000274658 0 1.78733 0 3.99463V21.5535C0 23.7405 1.71042 25.5164 3.83702 25.5479L21.6177 25.5484C23.7682 25.5484 25.5172 23.7608 25.5172 21.5535L25.5258 3.99463C25.5258 1.78733 23.7804 0.000274658 21.6304 0.000274658ZM6.0032 23.5015L5.03532 23.5132C3.86341 23.5132 2.91735 22.5483 2.91735 21.3627L2.91024 21.1917V4.97672L2.91735 4.10274C2.96455 2.95569 3.83498 2.02892 4.97695 2.02892H6.94266C8.72769 2.02892 10.1711 3.57946 10.1711 5.40559C10.1711 6.31257 9.81586 7.13124 9.24132 7.72963L4.22528 12.8172L8.92867 17.6084C9.53265 18.2347 9.89808 19.0564 9.89808 19.9543C9.89808 21.9129 8.15772 23.5015 6.0032 23.5015ZM20.4631 23.4868L11.6933 23.4842C11.6933 23.4842 12.7073 21.2906 12.7073 19.935C12.7073 18.2819 12.1546 16.8024 11.2892 15.8259L8.2912 12.7675L11.3486 9.60753C12.2637 8.74776 12.8677 7.22665 12.8677 5.49644C12.8677 4.12557 12.4891 2.91103 11.876 2.02892H14.0021C15.7856 2.02892 17.2305 3.57946 17.2305 5.40559C17.2305 6.31257 16.8768 7.13124 16.3038 7.72963L11.3806 12.7655L21.6025 23.1899C21.2767 23.3939 20.8696 23.4868 20.4631 23.4868ZM22.6024 20.2309L15.276 12.7639L18.7648 9.21926C19.4759 8.32853 19.9286 6.99115 19.9286 5.49644C19.9286 4.11745 19.5429 2.87093 18.9272 1.98933L20.4869 2.03806C21.6568 2.03806 22.6084 2.99985 22.6084 4.18902L22.6024 20.2309Z" fill="#00529C"/>
<path d="M41.2454 11.5743C41.388 11.4317 41.5565 11.248 41.7509 11.0231C41.9448 10.7983 42.1285 10.5328 42.3021 10.2263C42.4757 9.91974 42.6239 9.57816 42.7462 9.20005C42.869 8.82243 42.9304 8.41894 42.9304 7.99007C42.9304 7.15313 42.7873 6.37202 42.5015 5.64675C42.2153 4.92198 41.7763 4.28856 41.184 3.74702C40.5917 3.20649 39.8517 2.78218 38.963 2.47563C38.0748 2.16958 37.0379 2.0163 35.8538 2.0163H35.8213H32.4167H31.5305H28.0417V5.92133V19.4402V23.4604H36.6196C37.8652 23.4604 38.9523 23.2919 39.8821 22.9549C40.8109 22.6179 41.5824 22.1535 42.195 21.5612C42.8076 20.9689 43.2618 20.2797 43.5582 19.4935C43.8541 18.7073 44.0023 17.8648 44.0023 16.9659C44.0023 15.761 43.7267 14.6891 43.1756 13.7491C42.6239 12.8102 41.9803 12.0849 41.2454 11.5743ZM37.4525 5.94569C37.7413 6.05582 37.9824 6.19895 38.1707 6.37913C38.6584 6.84708 38.9026 7.40639 38.9026 8.05706C38.9026 8.64733 38.8006 9.13508 38.5975 9.52132C38.394 9.90807 38.1905 10.2029 37.9875 10.406H32.0244V5.69242H35.7309C36.4258 5.69242 36.9978 5.7782 37.4525 5.94569ZM36.8338 14.1171C37.9134 14.1171 38.7133 14.3968 39.234 14.9551C39.7238 15.5047 39.9704 16.1534 39.9704 16.904C39.9704 17.6775 39.6908 18.3378 39.1315 18.887C38.5716 19.4361 37.652 19.7112 36.3704 19.7112H35.8918H32.0244V14.1171H36.8338Z" fill="#00529C"/>
<path d="M58.5455 14.2242C59.1886 13.7852 59.725 13.2746 60.1539 12.6924C60.5828 12.1103 60.899 11.4672 61.1035 10.7628C61.3075 10.0578 61.4101 9.3381 61.4101 8.60267C61.4101 7.64291 61.2512 6.75978 60.935 5.95279C60.6178 5.14631 60.1432 4.45199 59.5103 3.86984C58.8769 3.28769 58.0857 2.83344 57.1361 2.50659C56.1864 2.18024 55.0886 2.0163 53.8431 2.0163H53.731H45.4799H45.4027V23.4604H49.4625V15.4956H51.7262L57.3249 23.4604H62.0836L56.294 15.22C57.1513 14.9957 57.9019 14.6637 58.5455 14.2242ZM53.8736 5.69242C54.1289 5.69242 54.37 5.70918 54.5994 5.7381C55.3231 5.84723 55.9144 6.10556 56.3702 6.51616C56.9904 7.07598 57.3005 7.76218 57.3005 8.57526C57.3005 8.98282 57.234 9.37921 57.1021 9.76545C56.9696 10.1522 56.7615 10.4928 56.4768 10.7871C56.1915 11.0825 55.8256 11.3211 55.3784 11.5043C54.9308 11.6875 54.3918 11.7789 53.7614 11.7789H49.4625V5.69242H53.8736Z" fill="#00529C"/>
<path d="M63.5174 2.0163V2.02239C63.4763 2.02138 63.4362 2.0163 63.395 2.0163H63.3605V2.01782V9.87812V15.5103V23.4604H67.5V2.0163H63.5174Z" fill="#00529C"/>
</svg>
