<svg width="76" height="24" viewBox="0 0 76 24" fill="none" xmlns="http://www.w3.org/2000/svg">
<path d="M24.9243 5.86035H24.8999V5.86392C24.907 5.86392 24.9136 5.86392 24.9243 5.86035Z" fill="#168F8C"/>
<path d="M25.4707 5.24414V19.8927H28.9175V8.91335C28.9175 8.09365 28.4796 5.61689 25.4707 5.24414Z" fill="#00A39D"/>
<path d="M7.14231 17.3467C7.58024 17.3467 7.93918 17.2919 8.2162 17.1794C8.49322 17.0669 8.71188 16.9233 8.86925 16.749C9.02662 16.5711 9.13271 16.3733 9.19401 16.1513C9.25236 15.9293 9.28301 15.7037 9.28301 15.4747C9.28301 15.2114 9.24883 14.9794 9.18045 14.7674C9.11208 14.559 8.99244 14.3811 8.82799 14.238C8.6606 14.0944 8.44135 13.9819 8.16492 13.903C7.89144 13.8247 7.54251 13.787 7.12522 13.787H4.80653V17.3467H7.14231ZM4.80653 8.04084V11.5699H6.53346C6.89948 11.5699 7.23072 11.5428 7.52483 11.4916C7.81894 11.4403 8.06826 11.3479 8.27691 11.2183C8.48202 11.0888 8.63939 10.9074 8.74901 10.6784C8.85864 10.4493 8.90992 10.1625 8.90992 9.81391C8.90992 9.47237 8.86866 9.19207 8.7832 8.96653C8.69774 8.741 8.56807 8.56022 8.39007 8.4236C8.21207 8.28699 7.98987 8.18806 7.71639 8.12976C7.44644 8.07146 7.12168 8.04084 6.74859 8.04084H4.80358H4.80653ZM6.75213 5.56055C7.74055 5.56055 8.58162 5.653 9.27535 5.83378C9.96966 6.01809 10.5372 6.27425 10.9746 6.60931C11.4125 6.94438 11.7337 7.34716 11.9318 7.82531C12.1298 8.30347 12.233 8.83639 12.233 9.42408C12.233 9.74501 12.1887 10.0524 12.0962 10.3498C12.0037 10.6472 11.8604 10.9239 11.6654 11.1836C11.4703 11.4433 11.2174 11.6788 10.9097 11.8944C10.6021 12.1093 10.2325 12.2977 9.80168 12.4544C10.7453 12.6834 11.4432 13.0521 11.894 13.5614C12.3449 14.0708 12.5713 14.7333 12.5713 15.543C12.5713 16.1513 12.4552 16.7183 12.2188 17.2407C11.983 17.7636 11.6377 18.2211 11.1826 18.6074C10.7276 18.9966 10.1671 19.3011 9.5005 19.5196C8.83389 19.738 8.07121 19.8476 7.21304 19.8476H1.5V5.56055H6.76215H6.75213Z" fill="#00A39D"/>
<path d="M22.5422 8.46087C22.4432 8.6181 22.3406 8.73411 22.2345 8.81301C22.1249 8.89133 21.9881 8.92902 21.8172 8.92902C21.6669 8.92902 21.506 8.88132 21.3316 8.78534C21.1571 8.68994 20.962 8.58395 20.7433 8.46735C20.5247 8.35134 20.2748 8.24181 19.9913 8.14936C19.7107 8.05397 19.3895 8.00568 19.0305 8.00568C18.4081 8.00568 17.9466 8.13877 17.6425 8.40199C17.3384 8.66521 17.1845 9.02383 17.1845 9.4749C17.1845 9.76167 17.2771 10.0008 17.458 10.1921C17.6425 10.3835 17.8818 10.5443 18.1795 10.6838C18.4771 10.8205 18.8189 10.9471 19.2021 11.0631C19.5852 11.1791 19.9748 11.3057 20.375 11.4458C20.7752 11.586 21.1648 11.7497 21.5479 11.9411C21.931 12.1324 22.2728 12.3715 22.5705 12.6654C22.8681 12.9592 23.1074 13.3178 23.2919 13.7383C23.4764 14.1587 23.5654 14.6675 23.5654 15.2617C23.5654 15.9212 23.4528 16.5395 23.2235 17.113C22.9942 17.6872 22.663 18.1889 22.2251 18.6194C21.7907 19.0463 21.2538 19.3849 20.6148 19.6304C19.9759 19.876 19.2504 19.9997 18.44 19.9997C17.9956 19.9997 17.5405 19.9555 17.079 19.863C16.6175 19.7706 16.1696 19.641 15.7388 19.4767C15.3079 19.3095 14.9012 19.1111 14.5216 18.8826C14.1421 18.6535 13.8102 18.3974 13.5303 18.1171L14.5116 16.5695C14.59 16.4571 14.6926 16.3646 14.8193 16.2892C14.946 16.2139 15.0863 16.1768 15.2366 16.1768C15.4317 16.1768 15.6297 16.238 15.8313 16.3646C16.0293 16.4877 16.2551 16.6278 16.5085 16.778C16.7614 16.9281 17.049 17.0648 17.3773 17.1914C17.7056 17.3144 18.0916 17.3792 18.5366 17.3792C19.1384 17.3792 19.607 17.2461 19.9418 16.9829C20.2771 16.7162 20.441 16.2998 20.441 15.7222C20.441 15.3871 20.3484 15.1174 20.1675 14.9089C19.983 14.7005 19.7437 14.5262 19.4461 14.3896C19.1484 14.2529 18.8101 14.1299 18.4305 14.0274C18.051 13.9214 17.6614 13.8054 17.2612 13.6788C16.861 13.5522 16.4714 13.395 16.0918 13.2071C15.7122 13.0193 15.3739 12.7767 15.0763 12.4728C14.7786 12.1689 14.5358 11.7897 14.3548 11.3351C14.1704 10.8805 14.0814 10.3205 14.0814 9.6545C14.0814 9.11804 14.191 8.59572 14.4061 8.08635C14.6212 7.57758 14.9395 7.12298 15.3604 6.72314C15.7812 6.3233 16.294 6.0059 16.9022 5.76682C17.5111 5.52774 18.2083 5.4082 18.9946 5.4082C19.4325 5.4082 19.8598 5.44236 20.2771 5.51066C20.6944 5.57897 21.0875 5.68144 21.46 5.81452C21.8325 5.9476 22.1815 6.10836 22.5062 6.29621C22.831 6.48406 23.118 6.69251 23.375 6.92806L22.551 8.46853L22.5422 8.46087Z" fill="#00A39D"/>
<path d="M28.9116 0.355085C28.9045 0.235545 28.891 0.116006 28.8739 0C29.6466 0.796144 30.7476 1.26076 31.9411 1.18538C32.5122 1.14769 33.0456 0.990468 33.5207 0.741379C33.1511 1.38383 32.9602 2.13875 33.0115 2.9349C33.0728 3.91889 33.4971 4.79335 34.1396 5.44228C33.8113 5.3775 33.4659 5.34982 33.114 5.37397C31.7189 5.46289 30.5395 6.26904 29.9171 7.41026C29.6707 5.72257 28.3611 4.41059 26.7202 4.12028C28.1053 3.44367 29.0183 1.98153 28.9151 0.352139L28.9116 0.355085Z" fill="#F9AD3C"/>
<path d="M34.8564 12.5332C35.0167 12.5332 35.1564 12.5161 35.2719 12.4784C35.3868 12.4408 35.4847 12.3931 35.5577 12.3283C35.6344 12.2635 35.6904 12.1846 35.7251 12.0927C35.7599 12.0003 35.7776 11.9014 35.7776 11.7918C35.7776 11.5798 35.701 11.4126 35.5471 11.2931C35.3933 11.17 35.1634 11.1087 34.8564 11.1087H33.9528V12.5332H34.8564ZM33.9528 9.3186V10.7124H34.6996C34.8599 10.7124 34.996 10.6954 35.1151 10.6612C35.2336 10.6271 35.3314 10.5794 35.408 10.5175C35.4847 10.4563 35.5442 10.3844 35.579 10.2991C35.6173 10.2101 35.635 10.1183 35.635 10.0123C35.635 9.76967 35.5619 9.59537 35.4116 9.48289C35.2648 9.37042 35.0349 9.31565 34.7243 9.31565H33.9534V9.3186H33.9528ZM34.7237 8.88107C34.9819 8.88107 35.2017 8.90522 35.3868 8.95645C35.5719 9.00415 35.7251 9.07599 35.8442 9.16844C35.9662 9.26089 36.0534 9.37336 36.1094 9.50644C36.1654 9.63599 36.1931 9.78675 36.1931 9.95045C36.1931 10.0529 36.1754 10.1483 36.1442 10.2408C36.113 10.3332 36.064 10.4186 36.001 10.4969C35.9379 10.5752 35.8542 10.6506 35.757 10.7119C35.6591 10.7731 35.5442 10.8243 35.4116 10.8655C35.7186 10.9238 35.9491 11.0292 36.1023 11.1865C36.2591 11.3437 36.3363 11.5486 36.3363 11.8012C36.3363 11.9756 36.3051 12.1328 36.2385 12.2759C36.1754 12.4196 36.0782 12.542 35.9526 12.6451C35.8271 12.7476 35.6733 12.8259 35.4917 12.8842C35.3102 12.9389 35.101 12.966 34.867 12.966H33.3911V8.87695H34.7243V8.88107H34.7237Z" fill="#00A39D"/>
<path d="M39.3206 11.4573L38.6646 9.79377C38.6434 9.74607 38.6263 9.68778 38.6016 9.623C38.5803 9.55823 38.5597 9.48639 38.5385 9.41101C38.4966 9.5647 38.4548 9.69484 38.413 9.79731L37.757 11.4573H39.3171H39.3206ZM40.4965 12.9742H40.0603C40.0079 12.9742 39.9696 12.9607 39.9383 12.9365C39.9071 12.9124 39.8823 12.8818 39.8688 12.8411L39.478 11.8536H37.6043L37.2135 12.8411C37.2029 12.8753 37.1788 12.9059 37.1475 12.9336C37.1163 12.9607 37.0744 12.9748 37.0255 12.9748H36.5894L38.2609 8.88574H38.8332L40.5047 12.9748H40.4965V12.9742Z" fill="#00A39D"/>
<path d="M44.4278 8.884V12.9731H44.1449C44.0995 12.9731 44.0612 12.966 44.0299 12.9489C44.0022 12.9354 43.9704 12.9077 43.9427 12.8706L41.5279 9.78909C41.5315 9.83679 41.535 9.88448 41.5385 9.92923C41.5421 9.9734 41.5421 10.0182 41.5421 10.0588V12.9731H41.0464V8.884H41.3393C41.3635 8.884 41.3847 8.88754 41.4024 8.89107C41.4201 8.8946 41.4336 8.89814 41.4478 8.90461C41.4619 8.91168 41.4755 8.91816 41.4896 8.9317C41.5038 8.94171 41.5173 8.95879 41.535 8.97586L43.9498 12.0539C43.9462 12.0026 43.9427 11.9585 43.9392 11.9102C43.9356 11.8625 43.9356 11.8177 43.9356 11.7771V8.87988H44.4313L44.4278 8.884Z" fill="#00A39D"/>
<path d="M46.4466 10.2898H46.6594C46.7324 10.2898 46.792 10.2798 46.8374 10.2627C46.8827 10.2421 46.9246 10.2115 46.9594 10.1673L48.348 8.62682C48.3863 8.57559 48.4281 8.54144 48.47 8.52436C48.5118 8.50375 48.5643 8.49727 48.6268 8.49727H49.1048L47.5134 10.2568C47.4751 10.301 47.4368 10.3422 47.3985 10.3693C47.3637 10.3964 47.3254 10.4205 47.2835 10.4411C47.336 10.4582 47.3849 10.4823 47.4267 10.5194C47.4686 10.5501 47.5104 10.5948 47.5523 10.649L49.2132 12.5858H48.7246C48.6863 12.5858 48.6551 12.5822 48.6268 12.5787C48.6026 12.5716 48.5778 12.5651 48.5608 12.5545C48.5395 12.5445 48.5224 12.5304 48.5083 12.5169C48.4942 12.5033 48.4806 12.4862 48.4664 12.4656L47.0254 10.8427C46.9871 10.795 46.9452 10.7609 46.8998 10.7438C46.8544 10.7232 46.7884 10.7132 46.6977 10.7132H46.443V12.5852H45.8813V8.49609H46.443V10.2898H46.4466Z" fill="#00A39D"/>
<path d="M52.9837 9.52624C52.966 9.55333 52.9454 9.57747 52.9242 9.59102C52.903 9.60456 52.8788 9.61163 52.8511 9.61163C52.8199 9.61163 52.778 9.59455 52.7362 9.56393C52.6908 9.53331 52.6348 9.49562 52.5688 9.45793C52.5028 9.41671 52.422 9.38256 52.3277 9.34841C52.2334 9.31425 52.122 9.30071 51.9859 9.30071C51.8603 9.30071 51.7483 9.31779 51.6511 9.35194C51.5568 9.38256 51.4766 9.43026 51.41 9.48502C51.3469 9.54332 51.2986 9.60809 51.2633 9.68641C51.232 9.76179 51.2143 9.84364 51.2143 9.93609C51.2143 10.0486 51.242 10.1446 51.298 10.2229C51.3576 10.2982 51.4306 10.3595 51.5249 10.4143C51.6192 10.469 51.7271 10.5132 51.8462 10.5544C51.9682 10.5921 52.0902 10.6327 52.2128 10.6739C52.3383 10.7152 52.4603 10.7629 52.5794 10.8176C52.7014 10.8689 52.8063 10.9336 52.9006 11.0155C52.9949 11.0938 53.0715 11.1933 53.1275 11.3093C53.187 11.4253 53.2147 11.569 53.2147 11.7362C53.2147 11.9141 53.1835 12.0849 53.1204 12.2421C53.0574 12.3993 52.9666 12.5324 52.8446 12.6484C52.7261 12.7644 52.5794 12.8569 52.4049 12.9216C52.2305 12.9864 52.0348 13.0206 51.8114 13.0206C51.5391 13.0206 51.2915 12.9729 51.0717 12.8769C50.8519 12.7815 50.6597 12.6478 50.5029 12.4876L50.6668 12.2244C50.6809 12.2038 50.7016 12.1867 50.7228 12.1732C50.7469 12.1596 50.7717 12.149 50.7994 12.149C50.8236 12.149 50.8519 12.1591 50.8831 12.1797C50.9143 12.2003 50.9526 12.2238 50.9945 12.255C51.0363 12.2857 51.0817 12.3198 51.1342 12.354C51.1866 12.3917 51.2456 12.4223 51.3122 12.4529C51.3782 12.4835 51.4554 12.5077 51.5426 12.5312C51.6299 12.5518 51.7242 12.5583 51.832 12.5583C51.9646 12.5583 52.0866 12.5412 52.1916 12.5035C52.2965 12.4659 52.3837 12.4182 52.4568 12.3534C52.5299 12.2886 52.5859 12.2068 52.6242 12.1178C52.6625 12.0254 52.6837 11.9229 52.6837 11.814C52.6837 11.6909 52.656 11.5884 52.5965 11.5101C52.5405 11.4318 52.4639 11.3635 52.3731 11.3123C52.2788 11.2575 52.1745 11.2133 52.0519 11.1792C51.9299 11.1415 51.8079 11.1038 51.6853 11.0667C51.5597 11.0255 51.4377 10.9813 51.3187 10.9301C51.1966 10.8789 51.0917 10.8106 50.9974 10.7322C50.9031 10.6504 50.83 10.5479 50.7705 10.4284C50.7145 10.3053 50.6868 10.1516 50.6868 9.97084C50.6868 9.82715 50.7145 9.687 50.7705 9.55039C50.83 9.41377 50.9137 9.29423 51.0216 9.19177C51.133 9.08578 51.2656 9.00392 51.4265 8.93915C51.5868 8.8779 51.7719 8.84375 51.9811 8.84375C52.2151 8.84375 52.4279 8.88144 52.6165 8.95328C52.8087 9.02512 52.9796 9.13112 53.1222 9.26773L52.9861 9.53096L52.9837 9.52624Z" fill="#00A39D"/>
<path d="M55.497 11.3464V12.9758H54.9318V11.3464L53.3999 8.88672H53.8956C53.9445 8.88672 53.9864 8.90026 54.0141 8.92441C54.0418 8.94855 54.0701 8.97917 54.0907 9.01686L55.0467 10.6056C55.0815 10.6739 55.1127 10.7352 55.1445 10.7935C55.1722 10.8518 55.2005 10.9095 55.2211 10.9678C55.2424 10.9095 55.2665 10.8518 55.2942 10.7935C55.3219 10.7352 55.3502 10.6704 55.385 10.6056L56.3375 9.01686C56.3551 8.98624 56.3793 8.95562 56.4106 8.92794C56.4418 8.90085 56.4801 8.88672 56.529 8.88672H57.0282L55.497 11.3464Z" fill="#00A39D"/>
<path d="M59.3743 11.4573L58.7183 9.79377C58.6971 9.74607 58.68 9.68778 58.6553 9.623C58.6341 9.55823 58.6134 9.48639 58.5922 9.41101C58.5504 9.5647 58.5085 9.69484 58.4667 9.79731L57.8107 11.4573H59.3708H59.3743ZM60.5502 12.9742H60.114C60.0616 12.9742 60.0233 12.9607 59.992 12.9365C59.9608 12.9124 59.936 12.8818 59.9225 12.8411L59.5317 11.8536H57.658L57.2672 12.8411C57.2566 12.8753 57.2325 12.9059 57.2012 12.9336C57.17 12.9607 57.1281 12.9748 57.0792 12.9748H56.6431L58.3146 8.88574H58.8869L60.5584 12.9748H60.5502V12.9742Z" fill="#00A39D"/>
<path d="M62.2593 10.8667C62.4232 10.8667 62.5664 10.8461 62.692 10.8084C62.8175 10.7672 62.9224 10.713 63.0061 10.6447C63.0933 10.5728 63.1564 10.4875 63.1983 10.3885C63.2401 10.2896 63.2613 10.1801 63.2613 10.0605C63.2613 9.81791 63.1812 9.6336 63.0173 9.51053C62.8535 9.38745 62.6089 9.32621 62.2812 9.32621H61.6635V10.8702H62.257L62.2593 10.8667ZM64.189 12.9742H63.6863C63.5814 12.9742 63.5083 12.9365 63.4594 12.8582L62.3743 11.3961C62.343 11.3519 62.3047 11.3177 62.2658 11.3007C62.2275 11.2801 62.1715 11.2701 62.0914 11.2701H61.6623V12.9748H61.1006V8.88574H62.28C62.5452 8.88574 62.7721 8.91283 62.9637 8.96406C63.1552 9.01529 63.3161 9.09067 63.4381 9.1896C63.5637 9.28853 63.658 9.40806 63.7175 9.54821C63.777 9.68836 63.8083 9.84206 63.8083 10.0164C63.8083 10.16 63.7841 10.2967 63.7387 10.4227C63.6933 10.5493 63.6238 10.6618 63.5366 10.7607C63.4493 10.8596 63.3409 10.945 63.2118 11.0133C63.0863 11.0851 62.943 11.1364 62.7792 11.1741C62.8523 11.2153 62.9118 11.273 62.9643 11.3484L64.182 12.9713L64.189 12.9742Z" fill="#00A39D"/>
<path d="M65.3238 12.9758H64.7544V8.88672H65.3238V12.9758Z" fill="#00A39D"/>
<path d="M68.6097 11.4573L67.9537 9.79377C67.9325 9.74607 67.9154 9.68778 67.8906 9.623C67.8694 9.55823 67.8488 9.48639 67.8276 9.41101C67.7857 9.5647 67.7439 9.69484 67.702 9.79731L67.046 11.4573H68.6062H68.6097ZM69.7855 12.9742H69.3494C69.3005 12.9742 69.2586 12.9607 69.2274 12.9365C69.1961 12.9124 69.1714 12.8818 69.1578 12.8411L68.7671 11.8536H66.8934L66.5026 12.8411C66.492 12.8753 66.4678 12.9059 66.4366 12.9336C66.4053 12.9607 66.3635 12.9748 66.3146 12.9748H65.8784L67.55 8.88574H68.1223L69.7938 12.9748H69.7855V12.9742Z" fill="#00A39D"/>
<path d="M73.7194 8.88672V12.9758H73.1536V11.1138H70.8997V12.9758H70.3345V8.88672H70.8997V10.711H73.1536V8.88672H73.7194Z" fill="#00A39D"/>
<path d="M33.9403 18.3631H33.3862V14.2734H33.9403V18.3631Z" fill="#0CA49D"/>
<path d="M38.4058 14.2766V18.3657H38.1229C38.0775 18.3657 38.0392 18.3586 38.0079 18.3415C37.9802 18.328 37.9484 18.3003 37.9207 18.2632L35.506 15.1817C35.5095 15.2294 35.513 15.2771 35.5166 15.3218C35.5201 15.366 35.5201 15.4107 35.5201 15.4514V18.3657H35.0244V14.2766H35.3173C35.3415 14.2766 35.3627 14.2801 35.3804 14.2836C35.3981 14.2872 35.4116 14.2907 35.4258 14.2972C35.4399 14.3043 35.4535 14.3107 35.4676 14.3243C35.4818 14.3343 35.4953 14.3514 35.513 14.3684L37.9278 17.4464C37.9243 17.3987 37.9207 17.351 37.9172 17.3028C37.9136 17.2551 37.9136 17.2103 37.9136 17.1697V14.2725H38.4093L38.4058 14.2766Z" fill="#00A39D"/>
<path d="M43.0912 16.3227C43.0912 16.63 43.0423 16.9068 42.9409 17.1594C42.8431 17.412 42.6998 17.624 42.5224 17.8048C42.3409 17.9827 42.1246 18.1228 41.87 18.2217C41.6189 18.3171 41.336 18.3684 41.0289 18.3684H39.4688V14.2793H41.0289C41.336 14.2793 41.6153 14.327 41.87 14.4259C42.1246 14.5213 42.3409 14.6615 42.5224 14.8428C42.704 15.0207 42.8437 15.2356 42.9409 15.4882C43.0387 15.7409 43.0912 16.0176 43.0912 16.325V16.3227ZM42.5118 16.3227C42.5118 16.07 42.477 15.848 42.4069 15.6496C42.3374 15.4517 42.2395 15.2839 42.1104 15.1473C41.9814 15.0107 41.8275 14.9047 41.643 14.8328C41.4615 14.761 41.2558 14.7233 41.0324 14.7233H40.0381V17.9173H41.0324C41.2593 17.9173 41.4615 17.8796 41.643 17.8078C41.8246 17.7359 41.9814 17.6299 42.1104 17.4968C42.2395 17.3602 42.3374 17.193 42.4069 16.9945C42.477 16.7979 42.5118 16.5723 42.5118 16.3227Z" fill="#00A39D"/>
<path d="M47.7705 16.3258C47.7705 16.6332 47.7216 16.9135 47.6202 17.1697C47.5224 17.4258 47.3827 17.6443 47.2017 17.8292C47.0202 18.0135 46.8039 18.1572 46.5493 18.2596C46.2982 18.3621 46.0153 18.4098 45.7082 18.4098C45.4011 18.4098 45.1217 18.3586 44.8671 18.2596C44.616 18.1572 44.3997 18.0135 44.2182 17.8292C44.0367 17.6449 43.897 17.4258 43.7997 17.1697C43.7019 16.9135 43.6494 16.6297 43.6494 16.3258C43.6494 16.0184 43.6983 15.7381 43.7997 15.4855C43.8976 15.2294 44.0372 15.0074 44.2182 14.823C44.3997 14.6352 44.616 14.4915 44.8671 14.389C45.1182 14.2866 45.4011 14.2354 45.7082 14.2354C46.0153 14.2354 46.2946 14.2866 46.5493 14.389C46.8039 14.4915 47.0202 14.6352 47.2017 14.823C47.3833 15.0074 47.5229 15.2294 47.6202 15.4855C47.718 15.7417 47.7705 16.022 47.7705 16.3258ZM47.1911 16.3258C47.1911 16.0732 47.1563 15.8512 47.0862 15.6492C47.0166 15.4514 46.9188 15.28 46.7897 15.1434C46.6607 15.0032 46.5068 14.8972 46.3223 14.8224C46.1408 14.7471 45.9351 14.71 45.7117 14.71C45.4883 14.71 45.2862 14.7477 45.1011 14.8224C44.9196 14.8978 44.7628 15.0032 44.6337 15.1434C44.5046 15.28 44.4068 15.4472 44.3372 15.6492C44.2677 15.8471 44.2323 16.0726 44.2323 16.3258C44.2323 16.5749 44.2671 16.8004 44.3372 17.0024C44.4068 17.2003 44.5046 17.3681 44.6337 17.5083C44.7628 17.6449 44.9196 17.7509 45.1011 17.8262C45.2826 17.8981 45.4883 17.9358 45.7117 17.9358C45.9386 17.9358 46.1408 17.8981 46.3223 17.8262C46.5039 17.7509 46.6607 17.6455 46.7897 17.5083C46.9188 17.3681 47.0166 17.2009 47.0862 17.0024C47.1563 16.8046 47.1911 16.579 47.1911 16.3258Z" fill="#00A39D"/>
<path d="M51.9615 14.2766V18.3657H51.6785C51.6332 18.3657 51.5949 18.3586 51.5636 18.3415C51.5359 18.328 51.5041 18.3003 51.4764 18.2632L49.0616 15.1817C49.0652 15.2294 49.0687 15.2771 49.0722 15.3218C49.0758 15.366 49.0758 15.4107 49.0758 15.4514V18.3657H48.5801V14.2766H48.873C48.8972 14.2766 48.9184 14.2801 48.9361 14.2836C48.9538 14.2872 48.9673 14.2907 48.9815 14.2972C48.9956 14.3043 49.0092 14.3107 49.0233 14.3243C49.0374 14.3343 49.051 14.3514 49.0687 14.3684L51.4835 17.4464C51.4799 17.3987 51.4764 17.351 51.4728 17.3028C51.4693 17.2551 51.4693 17.2103 51.4693 17.1697V14.2725H51.965L51.9615 14.2766Z" fill="#00A39D"/>
<path d="M55.6059 17.912L55.6024 18.3631H53.0303V14.2734H55.6024V14.7245H53.5955V16.0807H55.2217V16.5147H53.5955V17.912H55.6059Z" fill="#00A39D"/>
<path d="M58.5286 14.9178C58.5109 14.9449 58.4903 14.9691 58.4691 14.9826C58.4479 14.9962 58.4237 15.0032 58.396 15.0032C58.3648 15.0032 58.3229 14.9862 58.2811 14.9555C58.2357 14.9249 58.1797 14.8872 58.1137 14.8495C58.0477 14.8083 57.9669 14.7742 57.8726 14.74C57.7783 14.7094 57.6669 14.6923 57.5308 14.6923C57.4052 14.6923 57.2933 14.7094 57.196 14.7435C57.1017 14.7742 57.0215 14.8219 56.9549 14.8766C56.8919 14.9349 56.8435 14.9997 56.8082 15.078C56.7769 15.1534 56.7593 15.2388 56.7593 15.3277C56.7593 15.4402 56.787 15.5362 56.843 15.6145C56.9025 15.6898 56.9756 15.7511 57.0699 15.8058C57.1642 15.8606 57.272 15.9048 57.3911 15.946C57.5131 15.9837 57.6351 16.0243 57.7577 16.0655C57.8832 16.1068 58.0052 16.1545 58.1243 16.2092C58.2463 16.2605 58.3512 16.3252 58.4455 16.4071C58.5398 16.4854 58.6165 16.5849 58.6724 16.7009C58.732 16.8169 58.7597 16.9606 58.7597 17.1278C58.7597 17.3057 58.7284 17.4765 58.6654 17.6337C58.6023 17.7909 58.5115 17.924 58.3895 18.04C58.2711 18.156 58.1243 18.2485 57.9498 18.3132C57.7754 18.378 57.5797 18.4122 57.3563 18.4122C57.084 18.4122 56.8365 18.3645 56.6166 18.2685C56.3968 18.1731 56.2046 18.0394 56.0479 17.8792L56.2117 17.616C56.2259 17.5954 56.2465 17.5783 56.2677 17.5648C56.2919 17.5512 56.3166 17.5406 56.3443 17.5406C56.3685 17.5406 56.3968 17.5507 56.428 17.5713C56.4628 17.5919 56.4976 17.6154 56.5394 17.6466C56.5813 17.6773 56.6266 17.7114 56.6791 17.7456C56.7316 17.7833 56.7905 17.8139 56.8571 17.8445C56.9231 17.8751 57.0003 17.8993 57.0876 17.9228C57.1748 17.9434 57.2691 17.9499 57.3769 17.9499C57.5096 17.9499 57.6316 17.9328 57.7365 17.8951C57.8414 17.8574 57.9286 17.8098 58.0017 17.745C58.0748 17.6767 58.1308 17.5984 58.1691 17.5094C58.2074 17.417 58.2286 17.3145 58.2286 17.2056C58.2286 17.0825 58.2009 16.98 58.1414 16.9017C58.0854 16.8234 58.0088 16.7551 57.918 16.7039C57.8237 16.6491 57.7194 16.6049 57.5968 16.5708C57.4748 16.5331 57.3528 16.4954 57.2302 16.4583C57.1046 16.4171 56.9826 16.3729 56.8636 16.3217C56.7416 16.2705 56.6367 16.2022 56.5424 16.1238C56.4481 16.042 56.375 15.9395 56.3154 15.82C56.2594 15.6969 56.2317 15.5432 56.2317 15.3624C56.2317 15.2188 56.2594 15.0786 56.3154 14.942C56.375 14.8054 56.4587 14.6858 56.5665 14.5834C56.6779 14.4774 56.8105 14.3955 56.9714 14.3307C57.1318 14.2695 57.3168 14.2354 57.5261 14.2354C57.7601 14.2354 57.9728 14.273 58.1614 14.3449C58.3536 14.4167 58.5245 14.5227 58.6671 14.6593L58.531 14.9226L58.5286 14.9178Z" fill="#00A39D"/>
<path d="M60.1228 18.3631H59.5576V14.2734H60.1228V18.3631Z" fill="#00A39D"/>
<path d="M63.411 16.845L62.755 15.1815C62.7337 15.1302 62.7166 15.0755 62.6919 15.0107C62.6707 14.9459 62.65 14.8741 62.6288 14.7987C62.587 14.9524 62.5451 15.0819 62.5033 15.185L61.8473 16.845H63.4074H63.411ZM64.5868 18.3619H64.1507C64.0982 18.3619 64.0599 18.3484 64.0286 18.3242C63.9974 18.3001 63.9727 18.2695 63.9591 18.2288L63.5683 17.2413H61.6946L61.3039 18.2288C61.2932 18.263 61.2691 18.2936 61.2378 18.3213C61.2066 18.3484 61.1648 18.3625 61.1158 18.3625H60.6797L62.3512 14.2734H62.9235L64.5951 18.3625H64.5868V18.3619Z" fill="#00A39D"/>
</svg>
