<svg width="68" height="28" viewBox="0 0 68 28" fill="none" xmlns="http://www.w3.org/2000/svg">
<path d="M0 0V4.84036H11.0009V2.24769L0 0Z" fill="#F05A22"/>
<path d="M23.5177 4.84036L10.9997 0L11.0008 2.25677L23.5177 4.84036Z" fill="#FDBC38"/>
<path d="M11.0009 4.84036L23.5134 4.8404L11.0009 2.24732L11.0009 4.84036Z" fill="#F79433"/>
<path d="M52.2594 10.9275L23.5409 4.84275L52.2594 14.4033V10.9275Z" fill="#FDBC38"/>
<path d="M22.1258 11.8546H23.5112V12.4232C23.7783 12.1881 24.2458 11.7578 25.0788 11.7578C26.0276 11.7578 26.2947 12.3268 26.3587 12.5106C26.9242 11.966 27.2984 11.7578 27.8422 11.7578C28.1054 11.7578 28.2883 11.7981 28.4661 11.8653C29.2098 12.1521 29.2288 12.8144 29.2399 13.2424V16.7364H27.8339V13.555C27.8232 13.2112 27.8145 13.0172 27.7244 12.8615C27.7055 12.8216 27.5691 12.5789 27.2194 12.5789C27.1016 12.5789 26.8744 12.6074 26.7666 12.6666C26.3821 12.854 26.3674 13.1689 26.3587 13.4345V16.7364H24.9855V13.5751C24.9855 13.2013 24.9919 12.5789 24.3632 12.5789C24.2241 12.5789 23.9787 12.6196 23.8558 12.6868C23.5112 12.9014 23.5025 13.2112 23.5112 13.6443V16.7364H22.1258V11.8546ZM15.8861 13.3167C15.8759 12.9618 15.8759 12.5141 15.566 12.1699C15.4297 12.017 15.1108 11.7637 14.4541 11.7637C13.6764 11.7637 13.3638 12.1028 13.0109 12.4157V11.8597H11.6271V16.7396H13.0109V13.442C13.0224 13.1776 13.0338 12.8468 13.4432 12.6584C13.5278 12.624 13.6641 12.5821 13.8186 12.5821C14.4264 12.5821 14.475 13.0899 14.4845 13.2475C14.5058 13.4068 14.5058 13.5656 14.5058 13.7593V16.7396H15.8861V13.3167ZM39.818 13.3167C39.8034 12.9618 39.8034 12.5141 39.4979 12.1699C39.364 12.017 39.0375 11.7637 38.3871 11.7637C37.6114 11.7637 37.2965 12.1028 36.9448 12.4157V11.8597H35.5585V16.7396H36.9448V13.442C36.9578 13.1776 36.9669 12.8468 37.3731 12.6584C37.4612 12.624 37.5944 12.5821 37.7541 12.5821C38.3575 12.5821 38.4045 13.0899 38.4171 13.2475C38.4333 13.4068 38.4333 13.5656 38.4333 13.7593V16.7396H39.818V13.3167ZM34.264 12.4232C34.7453 12.978 34.7453 13.7881 34.7453 14.2173C34.7453 14.6685 34.7453 15.575 34.1996 16.1789C33.5859 16.8621 32.7592 16.8621 32.4277 16.8621C32.0748 16.8621 31.8855 16.8427 31.5358 16.7364C30.3285 16.3847 30.1112 15.3739 30.1112 14.4204C30.1112 13.9193 30.1112 12.9282 30.8122 12.3035C31.4275 11.7467 32.2139 11.7313 32.5545 11.7313C32.8477 11.7313 33.6803 11.7313 34.264 12.4232ZM33.2931 15.006C33.3215 14.7357 33.3338 14.4729 33.3338 14.1924C33.3338 13.9833 33.3215 13.7695 33.3041 13.555C33.2844 13.2539 33.216 12.4718 32.4691 12.4718C32.3166 12.4718 32.1862 12.5023 32.0483 12.5698C31.6496 12.8046 31.5915 13.2989 31.5666 13.555C31.5358 13.8758 31.5215 14.1465 31.5215 14.3421C31.5215 14.5595 31.5358 14.7827 31.5539 15.006C31.569 15.3048 31.6409 16.1303 32.4277 16.1303C32.5545 16.1303 32.6829 16.099 32.8019 16.0437C33.216 15.8145 33.2618 15.2747 33.2931 15.006ZM20.6925 12.1332C21.1177 12.5058 21.1102 13.0302 21.1102 13.41V16.7396H19.7892L19.7809 16.4231C19.7809 16.4231 19.3134 16.8672 18.3282 16.8672C17.9291 16.8672 17.5114 16.7562 17.2443 16.4511C17.0487 16.2413 16.9029 15.8801 16.9029 15.4C16.9029 15.2064 16.9159 14.6203 17.4988 14.2173C17.8702 13.9754 18.1895 13.8984 19.0486 13.7968L19.8397 13.7205V13.3329C19.8397 13.0997 19.8334 12.8939 19.7445 12.7362C19.5785 12.4683 19.2573 12.4683 19.1458 12.4683C18.8016 12.4683 18.6187 12.624 18.544 12.7287C18.3851 12.9219 18.3757 13.1922 18.367 13.3922H17.1534C17.1534 13.1649 17.1416 12.8674 17.3087 12.5738C17.6932 11.8854 18.367 11.7313 19.2624 11.7313C19.558 11.7313 19.6627 11.753 19.9642 11.8076C20.2669 11.8518 20.4665 11.9372 20.6925 12.1332ZM19.8397 14.3548C19.3628 14.3955 19.2324 14.4042 19.0304 14.4528C18.6479 14.5421 18.3109 14.7606 18.3109 15.2747C18.3109 15.3779 18.3195 15.4857 18.3472 15.5976C18.4511 15.9358 18.6977 16.0362 18.9704 16.0362C19.0897 16.0362 19.3825 16.0216 19.5833 15.8378C19.8334 15.6165 19.8397 15.3004 19.8397 15.0704V14.3548ZM10.2665 12.1332C10.6968 12.5058 10.6874 13.0302 10.6874 13.41V16.7396H9.36357L9.3533 16.4231C9.3533 16.4231 8.88898 16.8672 7.90265 16.8672C7.50235 16.8672 7.08664 16.7562 6.82386 16.4511C6.62509 16.2413 6.48007 15.8801 6.48007 15.4C6.48007 15.2064 6.4856 14.6203 7.07676 14.2173C7.44387 13.9754 7.76909 13.8984 8.62422 13.7968L9.41613 13.7205V13.3329C9.41613 13.0997 9.40585 12.8939 9.31694 12.7362C9.15532 12.4683 8.83049 12.4683 8.71906 12.4683C8.37882 12.4683 8.19665 12.624 8.11881 12.7287C7.96232 12.9219 7.95481 13.1922 7.94098 13.3922H6.72862C6.72862 13.1649 6.71874 12.8674 6.88313 12.5738C7.26762 11.8854 7.94098 11.7313 8.83682 11.7313C9.13082 11.7313 9.2383 11.753 9.54258 11.8076C9.84369 11.8518 10.0433 11.9372 10.2665 12.1332ZM9.41613 14.3548C8.93719 14.3955 8.8056 14.4042 8.60565 14.4528C8.22787 14.5421 7.88447 14.7606 7.88447 15.2747C7.88447 15.3779 7.89396 15.4857 7.92241 15.5976C8.0291 15.9358 8.2745 16.0362 8.55032 16.0362C8.66176 16.0362 8.95418 16.0216 9.16164 15.8378C9.40585 15.6165 9.41613 15.3004 9.41613 15.0704V14.3548ZM4.70539 10.6762C5.36175 11.3946 5.56645 12.5698 5.56645 13.2709C5.56645 15.9224 4.59237 16.8913 2.41976 16.8913H0.000180891V9.85032H2.41976C3.1603 9.85032 4.03203 9.94556 4.70539 10.6762ZM3.93245 14.3915C4.00239 14.0027 3.99963 13.6261 3.99963 13.2424C3.99963 12.183 3.70958 11.5242 3.44916 11.2271C3.07692 10.7967 2.73827 10.7643 2.31663 10.7643H1.58518V15.9746C1.58518 15.9746 1.48441 15.9848 1.91712 15.9848C3.53333 15.9848 3.81508 15.006 3.93245 14.3915Z" fill="#004E39"/>
<path d="M23.5233 4.84275L52.2469 4.85931V10.9274L23.5233 4.84275Z" fill="#F05A22"/>
<path d="M52.2469 4.85931V10.9274L67.4996 14.4037L67.4929 4.85939L52.2469 4.85931Z" fill="#F79433"/>
<path d="M26.0762 26.685V25.2387L25.4606 26.1757H25.4479L24.8267 25.2482V26.685H24.364V24.4646H24.8817L25.4606 25.3952L26.0399 24.4646H26.539V26.685H26.0762ZM27.8521 26.7099C27.2601 26.7099 26.9088 26.3804 26.9088 25.7335V24.4646H27.3724V25.7204C27.3724 26.0792 27.5636 26.2638 27.8584 26.2638C28.1528 26.2638 28.3441 26.086 28.3441 25.7358V24.4646H28.8068V25.7169C28.8068 26.3835 28.4437 26.7099 27.8521 26.7099ZM29.6402 24.9269V25.3897H30.6119V25.8524H29.6402V26.685H29.1771V24.4646H30.8893V24.9269H29.6402ZM32.1321 26.7131C31.4465 26.7131 30.9826 26.2314 30.9826 25.5813V25.575C30.9826 24.9507 31.4623 24.4369 32.1297 24.4369C32.5261 24.4369 32.7616 24.5436 32.9908 24.7408L32.6838 25.1067C32.5146 24.9665 32.3708 24.8831 32.1163 24.8831C31.763 24.8831 31.4911 25.1949 31.4911 25.5687V25.575C31.4911 25.9789 31.7614 26.2733 32.1519 26.2733C32.3289 26.2733 32.4629 26.229 32.6027 26.1413V25.8524H32.0926V25.3897H33.0651V26.3645C32.8335 26.5566 32.5352 26.7131 32.1321 26.7131Z" fill="#393C3E"/>
<path d="M21.8849 23.9102C21.6427 23.9102 21.4127 23.9615 21.2052 24.0552C20.9974 23.9615 20.7674 23.9102 20.5252 23.9102C19.6052 23.9102 18.8591 24.6554 18.8591 25.5754C18.8591 26.4945 19.6052 27.241 20.5252 27.241C20.7674 27.241 20.9974 27.1884 21.2052 27.0956C21.4127 27.1884 21.6427 27.241 21.8849 27.241C22.8048 27.241 23.5509 26.4945 23.5509 25.5754C23.5509 24.6554 22.8048 23.9102 21.8849 23.9102ZM21.2052 27.0806C20.3734 27.0806 19.6989 26.406 19.6989 25.5754C19.6989 24.7432 20.3734 24.0702 21.2052 24.0702C22.037 24.0702 22.7112 24.7432 22.7112 25.5754C22.7112 26.406 22.037 27.0806 21.2052 27.0806ZM21.8983 25.5754C21.8983 25.9579 21.5877 26.2681 21.2052 26.2681C20.8223 26.2681 20.5117 25.9579 20.5117 25.5754C20.5117 25.1925 20.8223 24.8827 21.2052 24.8827C21.5877 24.8827 21.8983 25.1925 21.8983 25.5754Z" fill="#DE2D36"/>
<path d="M0.694691 24.5401H1.20128L1.88729 26.6179H1.4858L1.31983 26.1033H0.526351L0.363138 26.6179H0L0.694691 24.5401ZM0.616836 25.8212H1.22974L0.925058 24.8566L0.616836 25.8212Z" fill="#393C3E"/>
<path d="M2.86669 25.0972H3.21878V25.33C3.2911 25.1877 3.45707 25.0652 3.68112 25.0652C3.8787 25.0652 4.03558 25.1502 4.11106 25.3387C4.22763 25.1502 4.43667 25.0652 4.62596 25.0652C4.90455 25.0652 5.13137 25.2371 5.13137 25.6556V26.6174H4.77968V25.6785C4.77968 25.4549 4.68365 25.3588 4.50938 25.3588C4.33512 25.3588 4.17508 25.4758 4.17508 25.7078V26.6174H3.82338V25.6785C3.82338 25.4549 3.7242 25.3588 3.55309 25.3588C3.37843 25.3588 3.21878 25.4758 3.21878 25.7078V26.6174H2.86669V25.0972Z" fill="#393C3E"/>
<path d="M5.43368 25.8738V25.8505C5.43368 25.3798 5.75653 25.0653 6.19003 25.0653C6.5678 25.0653 6.90804 25.2893 6.90804 25.8331V25.9346H5.79447C5.80593 26.2227 5.95135 26.3851 6.21334 26.3851C6.42515 26.3851 6.53579 26.301 6.56187 26.1524H6.90211C6.85271 26.4725 6.59388 26.6467 6.20425 26.6467C5.75653 26.6467 5.43368 26.3527 5.43368 25.8738ZM6.55911 25.6991C6.54133 25.4379 6.40737 25.3217 6.19003 25.3217C5.97743 25.3217 5.83517 25.464 5.8004 25.6991H6.55911Z" fill="#393C3E"/>
<path d="M7.22216 25.0972H7.57346V25.33C7.64656 25.1877 7.81213 25.0652 8.0358 25.0652C8.23377 25.0652 8.39065 25.1502 8.46613 25.3387C8.5827 25.1502 8.79214 25.0652 8.98103 25.0652C9.26001 25.0652 9.48684 25.2371 9.48684 25.6556V26.6174H9.13514V25.6785C9.13514 25.4549 9.03872 25.3588 8.86485 25.3588C8.69019 25.3588 8.53054 25.4758 8.53054 25.7078V26.6174H8.17845V25.6785C8.17845 25.4549 8.07966 25.3588 7.90816 25.3588C7.7335 25.3588 7.57346 25.4758 7.57346 25.7078V26.6174H7.22216V25.0972Z" fill="#393C3E"/>
<path d="M10.2429 26.3733V26.6179H9.89081V24.3947H10.2429V25.3419C10.3267 25.1969 10.516 25.0657 10.74 25.0657C11.1206 25.0657 11.4146 25.3478 11.4146 25.839V25.8627C11.4146 26.3504 11.132 26.6467 10.74 26.6467C10.499 26.6467 10.3239 26.5278 10.2429 26.3733ZM11.0542 25.8679V25.8445C11.0542 25.5075 10.8795 25.3419 10.6495 25.3419C10.4053 25.3419 10.231 25.5075 10.231 25.8445V25.8679C10.231 26.2081 10.3966 26.3677 10.6527 26.3677C10.9115 26.3677 11.0542 26.1935 11.0542 25.8679Z" fill="#393C3E"/>
<path d="M11.6291 25.8738V25.8505C11.6291 25.3798 11.9523 25.0653 12.3854 25.0653C12.7632 25.0653 13.1034 25.2893 13.1034 25.8331V25.9346H11.9898C12.0017 26.2227 12.1471 26.3851 12.4083 26.3851C12.6209 26.3851 12.7316 26.301 12.7573 26.1524H13.0979C13.0485 26.4725 12.7897 26.6467 12.3996 26.6467C11.9523 26.6467 11.6291 26.3527 11.6291 25.8738ZM12.7545 25.6991C12.7371 25.4379 12.6031 25.3217 12.3854 25.3217C12.1728 25.3217 12.0306 25.464 11.9958 25.6991H12.7545Z" fill="#393C3E"/>
<path d="M13.4172 25.0972H13.7689V25.3821C13.8649 25.1905 14.0075 25.0771 14.2636 25.0743V25.4023C13.955 25.4051 13.7689 25.5043 13.7689 25.8271V26.6174H13.4172V25.0972Z" fill="#393C3E"/>
<path d="M15.1618 25.8738V25.8505C15.1618 25.3798 15.4957 25.0653 15.9438 25.0653C16.3888 25.0653 16.7231 25.3771 16.7231 25.8414V25.8651C16.7231 26.3385 16.3888 26.6467 15.9411 26.6467C15.4929 26.6467 15.1618 26.3353 15.1618 25.8738ZM16.3627 25.8679V25.8477C16.3627 25.5336 16.205 25.3419 15.9438 25.3419C15.6822 25.3419 15.5222 25.5308 15.5222 25.8445V25.8679C15.5222 26.1785 15.6763 26.3733 15.9438 26.3733C16.205 26.3733 16.3627 26.1785 16.3627 25.8679Z" fill="#393C3E"/>
<path d="M17.1009 25.3616H16.8942V25.0972H17.1009V24.8937C17.1009 24.5594 17.287 24.3796 17.6126 24.3796C17.6972 24.3796 17.7494 24.3883 17.813 24.4089V24.6819C17.7723 24.6673 17.7174 24.6558 17.6533 24.6558C17.5107 24.6558 17.4526 24.7487 17.4526 24.8795V25.0972H17.7988V25.3616H17.4526V26.6174H17.1009V25.3616Z" fill="#393C3E"/>
<path d="M33.6586 26.879L33.9226 26.1907L34.2577 26.3234L33.8764 26.9751L33.6586 26.879Z" fill="#393C3E"/>
<path d="M35.2167 26.1958C35.2167 25.8414 35.5593 25.7141 35.996 25.7141H36.1849V25.6355C36.1849 25.4316 36.1153 25.3304 35.9087 25.3304C35.7253 25.3304 35.6344 25.4174 35.6186 25.5691H35.2776C35.3064 25.2139 35.5886 25.0657 35.9288 25.0657C36.2695 25.0657 36.5366 25.206 36.5366 25.6209V26.6179H36.19V26.4318C36.0924 26.5626 35.9581 26.6467 35.7253 26.6467C35.4467 26.6467 35.2167 26.5132 35.2167 26.1958ZM36.1849 26.086V25.935H36.0047C35.7376 25.935 35.5657 25.9963 35.5657 26.1816C35.5657 26.31 35.6344 26.3938 35.8095 26.3938C36.0252 26.3938 36.1849 26.2808 36.1849 26.086Z" fill="#393C3E"/>
<path d="M37.5478 26.67H37.9031C37.9319 26.821 38.0485 26.9079 38.2781 26.9079C38.5511 26.9079 38.7021 26.7712 38.7021 26.4981V26.2749C38.6187 26.4203 38.429 26.5562 38.2054 26.5562C37.8248 26.5562 37.5308 26.2717 37.5308 25.8331V25.8121C37.5308 25.385 37.8213 25.0653 38.2144 25.0653C38.4646 25.0653 38.6151 25.1795 38.7021 25.33V25.0973H39.0546V26.5045C39.0506 26.9522 38.7519 27.1754 38.2812 27.1754C37.8039 27.1754 37.5881 26.9601 37.5478 26.67ZM38.7143 25.8208V25.8007C38.7143 25.5134 38.557 25.3415 38.3037 25.3415C38.0425 25.3415 37.8916 25.5304 37.8916 25.807V25.8299C37.8916 26.1117 38.0659 26.2859 38.2923 26.2859C38.5365 26.2859 38.7143 26.1117 38.7143 25.8208Z" fill="#393C3E"/>
<path d="M39.4814 26.6178H39.8327V24.3946H39.4814V26.6178Z" fill="#393C3E"/>
<path d="M40.1587 25.8738V25.8505C40.1587 25.3798 40.4938 25.0653 40.9411 25.0653C41.386 25.0653 41.7195 25.3771 41.7195 25.8414V25.8651C41.7195 26.3385 41.386 26.6467 40.9379 26.6467C40.4902 26.6467 40.1587 26.3353 40.1587 25.8738ZM41.3592 25.8679V25.8477C41.3592 25.5336 41.2027 25.3419 40.9411 25.3419C40.6791 25.3419 40.519 25.5308 40.519 25.8445V25.8679C40.519 26.1785 40.6736 26.3733 40.9411 26.3733C41.2027 26.3733 41.3592 26.1785 41.3592 25.8679Z" fill="#393C3E"/>
<path d="M42.3889 26.3733V26.6179H42.0372V24.3947H42.3889V25.3419C42.4731 25.1969 42.662 25.0657 42.8857 25.0657C43.267 25.0657 43.5606 25.3478 43.5606 25.839V25.8627C43.5606 26.3504 43.2785 26.6467 42.8857 26.6467C42.6454 26.6467 42.4707 26.5278 42.3889 26.3733ZM43.2002 25.8679V25.8445C43.2002 25.5075 43.0259 25.3419 42.7964 25.3419C42.5518 25.3419 42.3775 25.5075 42.3775 25.8445V25.8679C42.3775 26.2081 42.5423 26.3677 42.7983 26.3677C43.0576 26.3677 43.2002 26.1935 43.2002 25.8679Z" fill="#393C3E"/>
<path d="M43.7665 26.1958C43.7665 25.8414 44.1103 25.7141 44.5458 25.7141H44.735V25.6355C44.735 25.4316 44.6655 25.3304 44.4592 25.3304C44.2759 25.3304 44.1854 25.4174 44.168 25.5691H43.8274C43.857 25.2139 44.1387 25.0657 44.479 25.0657C44.8196 25.0657 45.0871 25.206 45.0871 25.6209V26.6179H44.7406V26.4318C44.6414 26.5626 44.5074 26.6467 44.2759 26.6467C43.9965 26.6467 43.7665 26.5132 43.7665 26.1958ZM44.735 26.086V25.935H44.5541C44.2869 25.935 44.1162 25.9963 44.1162 26.1816C44.1162 26.31 44.1854 26.3938 44.3592 26.3938C44.575 26.3938 44.735 26.2808 44.735 26.086Z" fill="#393C3E"/>
<path d="M45.5001 26.6178H45.8518V24.3946H45.5001V26.6178Z" fill="#393C3E"/>
<path d="M47.0317 25.3616H46.8254V25.0972H47.0317V24.8937C47.0317 24.5594 47.2151 24.3796 47.5379 24.3796C47.6253 24.3796 47.6739 24.3883 47.7296 24.4061V24.6795C47.6889 24.6614 47.645 24.6558 47.5814 24.6558C47.4415 24.6558 47.383 24.7487 47.383 24.8795V25.0972H47.7296V25.3616H47.383V26.6174H47.0317V25.3616Z" fill="#393C3E"/>
<path d="M47.9564 24.6476C47.9564 24.531 48.0493 24.4437 48.1658 24.4437C48.2824 24.4437 48.3753 24.531 48.3753 24.6476C48.3753 24.7606 48.2824 24.8484 48.1658 24.8484C48.0493 24.8484 47.9564 24.7606 47.9564 24.6476ZM47.9939 25.0973H48.3464V26.6175H47.9939V25.0973Z" fill="#393C3E"/>
<path d="M48.7732 25.0972H49.1253V25.3387C49.198 25.1905 49.3663 25.0652 49.6165 25.0652C49.9223 25.0652 50.1373 25.243 50.1373 25.6607V26.6174H49.7856V25.6935C49.7856 25.4635 49.6916 25.3588 49.4825 25.3588C49.2849 25.3588 49.1253 25.4809 49.1253 25.7228V26.6174H48.7732V25.0972Z" fill="#393C3E"/>
<path d="M50.4297 26.1958C50.4297 25.8414 50.7727 25.7141 51.2098 25.7141H51.3987V25.6355C51.3987 25.4316 51.3287 25.3304 51.1228 25.3304C50.9383 25.3304 50.8494 25.4174 50.832 25.5691H50.4914C50.5206 25.2139 50.8028 25.0657 51.143 25.0657C51.4832 25.0657 51.7504 25.206 51.7504 25.6209V26.6179H51.4042V26.4318C51.3058 26.5626 51.1715 26.6467 50.9383 26.6467C50.6597 26.6467 50.4297 26.5132 50.4297 26.1958ZM51.3987 26.086V25.935H51.2177C50.951 25.935 50.7791 25.9963 50.7791 26.1816C50.7791 26.31 50.8494 26.3938 51.0229 26.3938C51.2386 26.3938 51.3987 26.2808 51.3987 26.086Z" fill="#393C3E"/>
<path d="M52.1542 25.0972H52.5059V25.3387C52.5786 25.1905 52.7473 25.0652 52.9979 25.0652C53.3025 25.0652 53.5179 25.243 53.5179 25.6607V26.6174H53.1658V25.6935C53.1658 25.4635 53.073 25.3588 52.8643 25.3588C52.6663 25.3588 52.5059 25.4809 52.5059 25.7228V26.6174H52.1542V25.0972Z" fill="#393C3E"/>
<path d="M53.821 25.8766V25.8528C53.821 25.3711 54.1628 25.0653 54.588 25.0653C54.9251 25.0653 55.2424 25.217 55.2819 25.6355H54.9425C54.9136 25.4316 54.7797 25.3478 54.5939 25.3478C54.3521 25.3478 54.1814 25.5336 54.1814 25.8477V25.871C54.1814 26.2018 54.3438 26.376 54.6026 26.376C54.7884 26.376 54.9484 26.2662 54.969 26.0512H55.2914C55.2657 26.3994 55.0006 26.6467 54.588 26.6467C54.1522 26.6467 53.821 26.3618 53.821 25.8766Z" fill="#393C3E"/>
<path d="M55.5649 24.6476C55.5649 24.531 55.6577 24.4437 55.7747 24.4437C55.8905 24.4437 55.983 24.531 55.983 24.6476C55.983 24.7606 55.8905 24.8484 55.7747 24.8484C55.6577 24.8484 55.5649 24.7606 55.5649 24.6476ZM55.6024 25.0973H55.9545V26.6175H55.6024V25.0973Z" fill="#393C3E"/>
<path d="M56.2707 26.1958C56.2707 25.8414 56.6145 25.7141 57.0507 25.7141H57.2396V25.6355C57.2396 25.4316 57.1697 25.3304 56.9634 25.3304C56.7804 25.3304 56.6903 25.4174 56.673 25.5691H56.3323C56.3612 25.2139 56.6433 25.0657 56.9832 25.0657C57.3238 25.0657 57.5905 25.206 57.5905 25.6209V26.6179H57.2451V26.4318C57.1471 26.5626 57.0124 26.6467 56.7804 26.6467C56.5011 26.6467 56.2707 26.5132 56.2707 26.1958ZM57.2396 26.086V25.935H57.0586C56.7915 25.935 56.62 25.9963 56.62 26.1816C56.62 26.31 56.6903 26.3938 56.8646 26.3938C57.0796 26.3938 57.2396 26.2808 57.2396 26.086Z" fill="#393C3E"/>
<path d="M58.0034 26.6178H58.3555V24.3946H58.0034V26.6178Z" fill="#393C3E"/>
<path d="M59.3909 26.67H59.7453C59.775 26.821 59.8907 26.9079 60.1203 26.9079C60.3938 26.9079 60.5451 26.7712 60.5451 26.4981V26.2749C60.4614 26.4203 60.2717 26.5562 60.0476 26.5562C59.6667 26.5562 59.3735 26.2717 59.3735 25.8331V25.8121C59.3735 25.385 59.6639 25.0653 60.0567 25.0653C60.3068 25.0653 60.4578 25.1795 60.5451 25.33V25.0973H60.8968V26.5045C60.8944 26.9522 60.5945 27.1754 60.1235 27.1754C59.6465 27.1754 59.4316 26.9601 59.3909 26.67ZM60.557 25.8208V25.8007C60.557 25.5134 60.3997 25.3415 60.1464 25.3415C59.8852 25.3415 59.7335 25.5304 59.7335 25.807V25.8299C59.7335 26.1117 59.9085 26.2859 60.1353 26.2859C60.3796 26.2859 60.557 26.1117 60.557 25.8208Z" fill="#393C3E"/>
<path d="M61.3149 25.0972H61.6674V25.3821C61.763 25.1905 61.9061 25.0771 62.1609 25.0743V25.4023C61.8527 25.4051 61.6674 25.5043 61.6674 25.8271V26.6174H61.3149V25.0972Z" fill="#393C3E"/>
<path d="M62.3384 25.8738V25.8505C62.3384 25.3798 62.6731 25.0653 63.1208 25.0653C63.5658 25.0653 63.9001 25.3771 63.9001 25.8414V25.8651C63.9001 26.3385 63.5658 26.6467 63.1184 26.6467C62.6699 26.6467 62.3384 26.3353 62.3384 25.8738ZM63.5397 25.8679V25.8477C63.5397 25.5336 63.3824 25.3419 63.1208 25.3419C62.8588 25.3419 62.6988 25.5308 62.6988 25.8445V25.8679C62.6988 26.1785 62.8533 26.3733 63.1208 26.3733C63.3824 26.3733 63.5397 26.1785 63.5397 25.8679Z" fill="#393C3E"/>
<path d="M64.202 26.071V25.0973H64.5544V26.0307C64.5544 26.2603 64.6505 26.3646 64.8532 26.3646C65.0421 26.3646 65.2076 26.2429 65.2076 26.0014V25.0973H65.5601V26.6179H65.2076V26.3792C65.1322 26.5278 64.9729 26.6467 64.7255 26.6467C64.426 26.6467 64.202 26.4748 64.202 26.071Z" fill="#393C3E"/>
<path d="M65.9762 25.0973H66.3272V25.3415C66.4117 25.1964 66.6006 25.0653 66.8255 25.0653C67.2056 25.0653 67.5 25.3474 67.5 25.8386V25.8623C67.5 26.3499 67.2171 26.6467 66.8255 26.6467C66.5832 26.6467 66.4093 26.5274 66.3272 26.3792V27.1379H65.9762V25.0973ZM67.1396 25.8674V25.8445C67.1396 25.507 66.9646 25.3415 66.735 25.3415C66.4908 25.3415 66.3153 25.507 66.3153 25.8445V25.8674C66.3153 26.2077 66.4813 26.3673 66.7373 26.3673C66.9954 26.3673 67.1396 26.1931 67.1396 25.8674Z" fill="#393C3E"/>
</svg>
