<svg width="68" height="20" viewBox="0 0 68 20" fill="none" xmlns="http://www.w3.org/2000/svg">
<g clip-path="url(#clip0_681_15058)">
<path fill-rule="evenodd" clip-rule="evenodd" d="M26.6819 14.638C27.9648 14.7299 29.4597 13.7333 29.9863 13.1643C31.8169 11.1835 31.8611 8.31914 30.0181 6.24466C29.3325 5.47248 27.7209 4.61901 26.7014 4.73917H23.0101V14.6256L26.6908 14.638H26.6819ZM25.0916 12.4964V6.86842C25.6694 6.83051 26.249 6.83051 26.8268 6.86842C27.2814 6.92114 27.7151 7.089 28.0867 7.35612C30.2071 8.80507 29.3236 12.2596 26.7915 12.4911C26.2256 12.5308 25.6577 12.5326 25.0916 12.4964Z" fill="#008CEB"/>
<path fill-rule="evenodd" clip-rule="evenodd" d="M59.0873 14.6556H61.1918V12.5246H65.3672L65.3796 14.645H67.4841V11.1322C67.4841 10.072 67.5725 8.75023 67.3074 7.79074C67.0667 6.91235 66.5453 6.13682 65.8226 5.58244C65.1 5.02807 64.2159 4.72528 63.3051 4.72028C62.3943 4.71527 61.5069 5.00832 60.7783 5.55472C60.0496 6.10112 59.5196 6.87088 59.2693 7.74657C58.9865 8.69369 59.082 10.0525 59.082 11.1039C59.082 12.2913 59.0696 13.4858 59.082 14.6733L59.0873 14.6556ZM61.1936 10.3812C61.1812 9.49768 61.0875 8.55233 61.5028 7.87203C61.685 7.55882 61.947 7.29948 62.2621 7.12039C62.5771 6.9413 62.9339 6.84886 63.2963 6.85246C63.6568 6.85512 64.0104 6.95128 64.3226 7.13154C64.6348 7.3118 64.8949 7.56998 65.0775 7.88086C65.4874 8.58767 65.3902 9.47118 65.3796 10.383L61.1936 10.3812Z" fill="#008CEB"/>
<path fill-rule="evenodd" clip-rule="evenodd" d="M35.0205 14.6539H37.1179C37.1179 14.2086 37.0614 12.8462 37.1374 12.5229H41.2969L41.311 14.6521H43.412C43.4014 13.4718 43.412 12.2932 43.412 11.1181C43.412 10.1109 43.5057 8.669 43.2353 7.77489C42.9931 6.89765 42.4708 6.12358 41.7481 5.57049C41.0254 5.0174 40.1417 4.71559 39.2316 4.71099C38.3216 4.70639 37.4349 4.99925 36.7066 5.545C35.9783 6.09075 35.4483 6.8595 35.1972 7.73425C34.9162 8.6531 35.0116 10.0579 35.0116 11.081C35.0116 12.2613 34.9851 13.4718 35.0116 14.6486L35.0205 14.6539ZM37.1197 10.3812C37.1056 9.49774 37.0154 8.54001 37.4307 7.87385C37.6129 7.56145 37.8738 7.30227 38.1874 7.12214C38.501 6.94201 38.8564 6.84722 39.218 6.84722C39.5797 6.84722 39.935 6.94201 40.2486 7.12214C40.5622 7.30227 40.8231 7.56145 41.0054 7.87385C41.4171 8.58065 41.3181 9.4783 41.311 10.3777L37.1197 10.3812Z" fill="#008CEB"/>
<path fill-rule="evenodd" clip-rule="evenodd" d="M47.1033 8.6001L47.0733 10.072C47.0733 11.3089 47.0132 13.6184 47.0733 14.6239H49.1301C49.1778 13.9171 49.0559 8.89696 49.1849 8.73616C49.1849 7.76077 50.2044 6.85252 51.2328 6.84899C51.7674 6.84577 52.2821 7.05116 52.6676 7.4215C52.9292 7.66005 53.3303 8.20429 53.3232 8.75383C53.4186 8.80861 53.3426 14.0549 53.3727 14.6362H55.4312L55.4153 8.63721C55.4666 8.16718 55.1839 7.44094 55.0019 7.0734C54.6643 6.3731 54.1375 5.78129 53.481 5.36499C52.8244 4.9487 52.0644 4.72455 51.2871 4.71792C50.5097 4.7113 49.746 4.92248 49.0825 5.32753C48.419 5.73258 47.8821 6.31533 47.5327 7.00979C47.356 7.37203 47.0591 8.11771 47.1033 8.6001Z" fill="#008CEB"/>
<path d="M9.64967 19.2993C14.979 19.2993 19.2993 14.979 19.2993 9.64967C19.2993 4.32031 14.979 0 9.64967 0C4.32031 0 0 4.32031 0 9.64967C0 14.979 4.32031 19.2993 9.64967 19.2993Z" fill="#008CEB"/>
<path d="M15.2723 9.69029V12.4062C15.2723 12.5829 15.1964 12.62 15.0479 12.5334C14.8494 12.4143 14.6427 12.3092 14.4295 12.2189C13.7855 11.9623 13.0879 11.8694 12.3992 11.9485C11.6475 12.046 10.9097 12.2311 10.201 12.4998C9.4942 12.7384 8.80153 12.9964 8.08059 13.196C7.48346 13.3734 6.86203 13.4551 6.23936 13.4381C5.54928 13.4114 4.87862 13.2022 4.29564 12.832C4.22239 12.7879 4.16229 12.725 4.12158 12.6498C4.08088 12.5746 4.06105 12.4899 4.06416 12.4044C4.06416 10.6256 4.06416 8.84683 4.06416 7.06804C4.06416 6.98145 4.06416 6.87897 4.14191 6.83479C4.21966 6.79062 4.29917 6.86306 4.36632 6.90724C4.99938 7.33529 5.74917 7.55745 6.51324 7.54336C7.05958 7.52095 7.59988 7.42039 8.11769 7.24474C8.85277 7.01679 9.56311 6.71463 10.2858 6.45842C10.8484 6.24222 11.4252 6.06509 12.0122 5.92831C12.5159 5.81034 13.0387 5.79796 13.5474 5.89193C14.0562 5.9859 14.54 6.18419 14.9684 6.47432C15.0666 6.53449 15.147 6.61974 15.2014 6.72129C15.2557 6.82284 15.2821 6.93704 15.2776 7.05213C15.2776 7.93564 15.2776 8.81915 15.2776 9.70266L15.2723 9.69029Z" fill="#FEFEFE"/>
</g>
<defs>
<clipPath id="clip0_681_15058">
<rect width="67.5" height="19.2993" fill="white"/>
</clipPath>
</defs>
</svg>
