<svg width="68" height="15" viewBox="0 0 68 15" fill="none" xmlns="http://www.w3.org/2000/svg">
<path d="M7.3673 14.7346C11.4361 14.7346 14.7346 11.4361 14.7346 7.3673C14.7346 3.29845 11.4361 0 7.3673 0C3.29845 0 0 3.29845 0 7.3673C0 11.4361 3.29845 14.7346 7.3673 14.7346Z" fill="#00AED6"/>
<path d="M7.3673 14.7346C11.4361 14.7346 14.7346 11.4361 14.7346 7.3673C14.7346 3.29845 11.4361 0 7.3673 0C3.29845 0 0 3.29845 0 7.3673C0 11.4361 3.29845 14.7346 7.3673 14.7346Z" fill="#00AED6"/>
<path fill-rule="evenodd" clip-rule="evenodd" d="M11.6584 7.13786C11.6041 6.20234 10.808 5.48419 9.87187 5.52627H5.21819C5.04866 5.52627 4.91122 5.38883 4.91122 5.2193C4.91122 5.04976 5.04866 4.91233 5.21819 4.91233H9.93323C9.90774 4.2754 9.47333 3.72804 8.85883 3.55858C7.48503 3.31608 6.07937 3.31608 4.70558 3.55858C3.92464 3.75095 3.34046 4.40085 3.23212 5.19781C3.01418 6.64366 3.01418 8.11401 3.23212 9.55986C3.39803 10.4015 4.06591 11.0535 4.91125 11.1991C6.61657 11.4109 8.34155 11.4109 10.0469 11.1991C10.8052 11.0438 11.3791 10.4205 11.4712 9.65195C11.6239 8.8231 11.6867 7.98019 11.6584 7.13786ZM10.1297 8.16929V8.44249C10.1297 8.61202 9.99229 8.74946 9.82275 8.74946C9.65322 8.74946 9.51578 8.61202 9.51578 8.44249V8.16929C9.41769 8.08329 9.3617 7.95899 9.36229 7.82855C9.36229 7.57424 9.56845 7.36809 9.82275 7.36809C10.0771 7.36809 10.2832 7.57424 10.2832 7.82855C10.2838 7.95899 10.2278 8.08329 10.1297 8.16928V8.16929Z" fill="white"/>
<path d="M20.5586 11.0348C21.1839 11.9269 22.2238 12.4351 23.3118 12.3802C24.5948 12.3802 25.5385 11.5606 25.5385 10.4466V9.8591H25.5074C24.8044 10.5461 23.8447 10.9054 22.8633 10.849C21.313 10.8935 19.8597 10.0968 19.0633 8.76592C18.2669 7.43504 18.2519 5.77772 19.0239 4.43258C19.7959 3.08744 21.2345 2.26445 22.7854 2.28075C23.7854 2.21659 24.7683 2.56279 25.5074 3.23944H25.5385V2.43545L27.7353 2.43545V10.4161C27.7353 12.7357 25.8947 14.3443 23.3118 14.3443C21.62 14.4366 19.9865 13.7119 18.9195 12.3958L20.5586 11.0348ZM25.4462 6.06993C25.4462 5.14183 24.3946 4.29106 23.2194 4.29106C21.7337 4.29106 20.7445 5.18859 20.7445 6.53399C20.7004 7.17144 20.94 7.79583 21.3992 8.24019C21.8583 8.68455 22.4902 8.90356 23.1259 8.83866C24.4101 8.83866 25.4462 8.03407 25.4462 7.02862V6.06993ZM33.4886 2.20342C36.165 2.20342 38.1135 4.1058 38.1135 6.53399C38.1135 8.96218 36.165 10.8646 33.4886 10.8646C31.8737 10.9704 30.3341 10.1689 29.4945 8.78541C28.6549 7.40186 28.6549 5.66611 29.4945 4.28257C30.3341 2.89903 31.8737 2.09756 33.4886 2.20342ZM33.4886 4.21372C32.2094 4.22244 31.1786 5.26494 31.1844 6.54414C31.1902 7.82334 32.2303 8.85651 33.5095 8.85372C34.7887 8.85091 35.8243 7.8132 35.8244 6.53399C35.8534 5.90743 35.6161 5.29782 35.1711 4.85579C34.7261 4.41376 34.1149 4.18052 33.4886 4.21372ZM39.351 2.43545H41.5478V3.1621H41.5789C42.2967 2.502 43.2489 2.15675 44.223 2.20342C46.5813 2.24597 48.472 4.16766 48.4763 6.52635C48.4805 8.88503 46.5967 10.8135 44.2386 10.8646C43.3076 10.886 42.3988 10.5793 41.6713 9.9982H41.6401V14.1123H39.351V2.43545ZM43.868 4.22928C42.6605 4.22928 41.6401 5.08007 41.6401 6.00818V7.0442C41.6401 8.03407 42.6306 8.85366 43.8824 8.85366C45.1594 8.84968 46.1914 7.81126 46.1874 6.53429C46.1834 5.25731 45.145 4.22533 43.868 4.22928ZM52.7918 5.74497C54.2919 5.54412 54.7403 5.32768 54.7403 4.9098C54.7403 4.3684 54.1683 4.04404 53.287 4.04404C52.3374 3.96363 51.4707 4.58704 51.2449 5.51295L49.0793 5.06448C49.3887 3.39413 51.1058 2.20342 53.2247 2.20342C55.6217 2.20342 57.1074 3.42531 57.1074 5.42002V10.6325H55.0497V9.7356H55.0185C54.321 10.5215 53.2979 10.9387 52.2498 10.8646C50.4403 10.8646 49.1884 9.87469 49.1884 8.42078C49.1885 6.88952 50.2089 6.10111 52.7918 5.74497ZM54.9262 6.61133H54.895C54.6936 6.90511 54.2607 7.07538 53.1479 7.27622C51.8013 7.52384 51.3229 7.78645 51.3229 8.26609C51.3229 8.76132 51.7246 8.97776 52.5903 8.97776C53.9057 8.97776 54.9262 8.3746 54.9262 7.5856V6.61133ZM61.2515 10.1841L57.4623 2.43545L59.984 2.43545L62.4733 7.78645H62.5045L64.9639 2.43545H67.5L61.8246 14.1123H59.3029L61.2515 10.1841Z" fill="black"/>
</svg>
