<svg width="34" height="10" viewBox="0 0 34 10" fill="none" xmlns="http://www.w3.org/2000/svg">
<path fill-rule="evenodd" clip-rule="evenodd" d="M0.368185 6.66716C0.368185 6.18578 0.359664 5.78107 0.333252 5.41982H1.24576L1.28921 6.04008H1.31477C1.58233 5.58408 2.07709 5.31008 2.60557 5.32524C3.11773 5.31104 3.58315 5.62144 3.76687 6.09972H3.78561C3.91389 5.887 4.09049 5.70749 4.30108 5.57573C4.54806 5.40386 4.84381 5.31603 5.14457 5.32524C5.84152 5.32524 6.54699 5.79811 6.54699 7.14173V9.61257H5.51264V7.2951C5.51264 6.599 5.27152 6.18748 4.76372 6.18748C4.40247 6.18748 4.13579 6.44308 4.02417 6.74725C3.99302 6.86208 3.97558 6.9802 3.9722 7.09913V9.61002H2.94041V7.18263C2.94041 6.599 2.70867 6.18492 2.21791 6.18492C1.82257 6.18492 1.55589 6.49506 1.46047 6.7873C1.41872 6.89599 1.39819 7.01168 1.39997 7.1281V9.61002H0.368185V6.66716Z" fill="#003D79"/>
<path fill-rule="evenodd" clip-rule="evenodd" d="M10.567 8.60257C10.5618 8.939 10.5818 9.27534 10.6266 9.6088H9.6715L9.60334 9.14445H9.57948C9.27432 9.51068 8.81803 9.71668 8.34151 9.70337C7.49801 9.70337 7.02515 9.09333 7.02515 8.45603C7.02515 7.39697 7.96236 6.86447 9.51132 6.87299V6.80397C9.51132 6.52877 9.39886 6.07295 8.65931 6.07295C8.2627 6.07355 7.87348 6.18035 7.53209 6.38223L7.32335 5.69039C7.63263 5.50124 8.17536 5.32062 8.83738 5.32062C10.1802 5.32062 10.567 6.17263 10.567 7.08429V8.60257ZM9.53456 7.56474C8.78564 7.54685 8.07251 7.71044 8.07251 8.34689C8.07251 8.76012 8.34004 8.94927 8.67488 8.94927C9.04585 8.95573 9.37895 8.72301 9.50048 8.37245C9.52364 8.29741 9.53514 8.21924 9.53456 8.14071V7.56474Z" fill="#003D79"/>
<path fill-rule="evenodd" clip-rule="evenodd" d="M11.2975 6.66705C11.2975 6.18567 11.2881 5.78096 11.2634 5.41971H12.1913L12.2424 6.04849H12.2688C12.4494 5.72132 12.9053 5.32428 13.6022 5.32428C14.3341 5.32428 15.0907 5.79715 15.0907 7.12288V9.60991H14.0333V7.24387C14.0333 6.64149 13.8092 6.18481 13.2333 6.18481C12.854 6.19367 12.5223 6.44256 12.4077 6.80423C12.3754 6.91483 12.361 7.02989 12.3651 7.14503V9.60991H11.2975V6.66705Z" fill="#003D79"/>
<path fill-rule="evenodd" clip-rule="evenodd" d="M19.678 3.73688V8.43062C19.678 8.85663 19.6959 9.32609 19.7129 9.60896H18.7672L18.7238 8.94694H18.7059C18.4562 9.41129 17.9484 9.70353 17.3384 9.70353C16.3398 9.70353 15.5491 8.85152 15.5491 7.56242C15.5398 6.16 16.4173 5.32503 17.4236 5.32503C17.9995 5.32503 18.4128 5.56615 18.6019 5.87714H18.6198V3.73688H19.678ZM18.6212 7.16615C18.6211 7.07379 18.6122 6.98165 18.5948 6.89095C18.5091 6.45553 18.1269 6.14188 17.6831 6.14288C17.0015 6.14288 16.6249 6.74526 16.6249 7.52826C16.6249 8.29507 17.0041 8.85314 17.6755 8.85314C18.1181 8.85009 18.4982 8.53781 18.5871 8.10422C18.6126 8.00316 18.6243 7.89913 18.622 7.79494L18.6212 7.16615Z" fill="#003D79"/>
<path fill-rule="evenodd" clip-rule="evenodd" d="M20.4268 9.6097V5.41949H21.4943V9.6097H20.4268Z" fill="#003D79"/>
<path fill-rule="evenodd" clip-rule="evenodd" d="M22.2416 6.76997C22.2416 6.20253 22.2331 5.79697 22.2075 5.41867H23.126L23.1601 6.21786H23.195C23.4012 5.62145 23.8911 5.41867 24.3401 5.41867C24.4228 5.41 24.5062 5.41 24.5889 5.41867V6.34822C24.4873 6.32579 24.3836 6.31436 24.2796 6.31414C23.7684 6.31414 23.4276 6.64046 23.333 7.11333C23.3121 7.22146 23.3007 7.33123 23.2989 7.44135V9.60973H22.2416V6.76997Z" fill="#003D79"/>
<path fill-rule="evenodd" clip-rule="evenodd" d="M25.0818 9.6097V5.41949H26.1477V9.6097H25.0818Z" fill="#003D79"/>
<path fill-rule="evenodd" clip-rule="evenodd" d="M32.7873 0.988332C32.259 0.385958 31.6976 0.658603 31.2537 0.880126C31.0662 0.972996 29.7115 1.74066 29.7115 1.74066C28.9694 2.04653 28.3909 1.71254 28.1643 1.43138C28.1425 1.40451 28.1229 1.37603 28.1055 1.34618L28.051 1.26012C27.9613 1.10559 27.8616 0.95703 27.7527 0.815373C27.6868 0.729615 27.6154 0.648219 27.5389 0.571697C27.0277 0.0604891 26.2191 -0.299913 24.8627 0.351878C24.2203 0.724208 22.1278 1.91958 22.1278 1.91958C21.3422 2.24335 20.7398 1.84887 20.5447 1.56003C20.536 1.54913 20.5283 1.53744 20.5217 1.5251L20.4961 1.48165L20.3649 1.26012C20.3079 1.17066 20.2448 1.07865 20.1732 0.984072C20.1066 0.898844 20.0352 0.817486 19.9594 0.740396C19.455 0.229188 18.6481 -0.127806 17.3028 0.512056L14.5977 2.05761L13.2131 2.84828L13.9297 3.73096C14.2313 4.01809 14.7979 4.48925 15.6738 4.09222C15.6738 4.09222 18.0926 2.69151 18.102 2.68725C20.1698 1.55236 21.1905 2.63698 21.6413 3.35949C21.6566 3.38164 21.6702 3.40635 21.6839 3.4285C21.689 3.43702 21.6932 3.44554 21.6975 3.45406L21.7486 3.53926C21.9575 3.87885 22.3298 4.08341 22.7284 4.07773C22.9559 4.07347 23.111 3.9985 23.3359 3.8741L25.6764 2.51684H25.6815C27.7749 1.36833 28.8127 2.52366 29.26 3.24617C29.2942 3.30768 29.3321 3.36714 29.3733 3.42424C29.5931 3.72159 29.8956 3.9167 30.2798 3.90733C30.4847 3.88963 30.683 3.82616 30.86 3.72159L33.6666 2.10277C33.3961 1.71398 33.1025 1.34183 32.7873 0.988332Z" fill="url(#paint0_linear_6665_35833)"/>
<defs>
<linearGradient id="paint0_linear_6665_35833" x1="39.2355" y1="8.61196" x2="40.3567" y2="-3.41068" gradientUnits="userSpaceOnUse">
<stop stop-color="#FDB913"/>
<stop offset="0.22" stop-color="#FFCB05"/>
<stop offset="0.39" stop-color="#FAA61A"/>
<stop offset="0.53" stop-color="#FFCB05"/>
<stop offset="0.65" stop-color="#FAA61A"/>
<stop offset="0.65" stop-color="#FBAB17"/>
<stop offset="0.69" stop-color="#FDBD0D"/>
<stop offset="0.72" stop-color="#FFC807"/>
<stop offset="0.76" stop-color="#FFCB05"/>
<stop offset="0.8" stop-color="#FFCB05"/>
<stop offset="1" stop-color="#FFCB05"/>
</linearGradient>
</defs>
</svg>
