<svg width="68" height="25" viewBox="0 0 68 25" fill="none" xmlns="http://www.w3.org/2000/svg">
<path d="M64.7347 8.84025H54.0203V6.696H64.7347V2.40975L47.592 2.40975V13.1243H58.3065V15.2685H47.592V19.5548L64.7347 19.5548V8.84025Z" fill="black"/>
<path d="M45.45 2.40975H41.1637V19.5525H45.45V2.40975Z" fill="black"/>
<path d="M21.879 2.40975V6.696H34.7355V8.84025L21.879 8.84025V19.5548H26.163V13.1895L32.5935 19.5548H39.0217L32.3145 13.1243H39.0217V2.40975L21.879 2.40975Z" fill="black"/>
<path d="M9.02025 13.1243H13.2952V8.84925H9.02025V13.1243ZM10.0935 9.91125H12.2355V12.0533H10.0935V9.91125Z" fill="black"/>
<path d="M6.87825 2.40975H3.1275C2.98576 2.41083 2.85007 2.46736 2.7495 2.56725C2.69947 2.61711 2.65979 2.67638 2.63276 2.74164C2.60573 2.8069 2.59188 2.87686 2.592 2.9475L2.592 19.017C2.59188 19.0876 2.60573 19.1576 2.63276 19.2229C2.65979 19.2881 2.69947 19.3474 2.7495 19.3973C2.8503 19.4965 2.98603 19.5523 3.1275 19.5525H13.3065V15.2775H6.87825V2.40975Z" fill="black"/>
<path d="M19.1992 2.40975H9.02025V6.696H15.4507V13.1243H19.7257V2.9475C19.7271 2.80593 19.673 2.66946 19.575 2.56725C19.4746 2.4685 19.3401 2.41211 19.1992 2.40975Z" fill="black"/>
<path d="M19.737 15.2685H15.4508V24.912H19.737V15.2685Z" fill="black"/>
<path d="M8.5725 0L0.5355 0C0.393659 0.000592246 0.257796 0.057201 0.157499 0.157499C0.057201 0.257796 0.000592246 0.393659 0 0.5355L0 8.5725H1.071L1.071 1.5975C1.07393 1.45723 1.13158 1.32366 1.23162 1.22529C1.33167 1.12693 1.4662 1.07156 1.6065 1.071L8.5815 1.071L8.5725 0Z" fill="black"/>
<path d="M66.429 13.9275V20.9025C66.4284 21.0443 66.3718 21.1802 66.2715 21.2805C66.1712 21.3808 66.0353 21.4374 65.8935 21.438L58.9185 21.438V22.5L66.9555 22.5C67.0265 22.5009 67.097 22.4877 67.1628 22.4612C67.2287 22.4347 67.2887 22.3955 67.3393 22.3457C67.3899 22.2959 67.4302 22.2366 67.4578 22.1712C67.4854 22.1057 67.4997 22.0355 67.5 21.9645V13.9275H66.429Z" fill="black"/>
</svg>
