<svg width="68" height="22" viewBox="0 0 68 22" fill="none" xmlns="http://www.w3.org/2000/svg">
<path fill-rule="evenodd" clip-rule="evenodd" d="M9.92238 0C4.45622 0 0.0247936 4.43143 0.0247936 9.88661C0.0213602 11.9719 0.680986 14.0044 1.90836 15.6903C2.33419 15.487 2.77461 15.3159 3.22595 15.1784C2.07176 13.7304 1.38578 11.8902 1.38578 9.89759C1.38578 5.20473 5.20756 1.38295 9.90042 1.38295C14.5933 1.38295 18.4151 5.20446 18.4151 9.89732C18.4151 12.9027 16.8473 15.5593 14.4735 17.0727C14.7023 17.0727 14.931 17.0727 15.1705 17.062C15.9435 17.0183 16.6732 16.6698 17.2938 16.387C18.8616 14.6336 19.8197 12.4342 19.8197 9.88634C19.8197 4.4317 15.3883 0 9.92238 0Z" fill="#EA5F00"/>
<path fill-rule="evenodd" clip-rule="evenodd" d="M16.1938 19.7307C15.6385 19.9158 15.0942 20.0246 14.5716 20.0355C12.3613 20.1226 10.7715 19.4586 9.24715 18.8053C7.8859 18.228 6.61197 17.6838 5.0442 17.7708C3.56322 17.8905 2.52902 18.7182 2.48536 18.7506C2.18054 18.9904 2.13715 19.4366 2.37661 19.7417C2.61608 20.0465 3.07331 20.1009 3.3784 19.8614C3.38911 19.8614 4.12947 19.2735 5.15295 19.1971C6.35081 19.1428 7.45063 19.589 8.70259 20.1336C10.1289 20.7432 11.7187 21.4185 13.842 21.4836C14.1034 21.4946 14.3646 21.4836 14.637 21.4729C15.3013 21.4512 15.987 21.3202 16.673 21.0917C16.8503 21.0288 16.9962 20.8992 17.0796 20.7304C17.163 20.5617 17.1773 20.3671 17.1195 20.1879C16.9778 19.7961 16.5642 19.6 16.1938 19.7307Z" fill="#2673DD"/>
<path fill-rule="evenodd" clip-rule="evenodd" d="M18.4694 16.5391C17.7944 17.0074 16.4334 17.8021 14.8764 17.8567C12.8948 17.9438 11.5989 17.3666 10.2162 16.7786C8.7679 16.1473 7.26549 15.494 5.01147 15.592C2.92085 15.6681 1.1463 16.8659 0.274956 17.5626C0.199261 17.623 0.136323 17.6978 0.0898058 17.7826C0.0432884 17.8675 0.0141207 17.9608 0.00400028 18.0571C-0.00612011 18.1534 0.00300903 18.2507 0.0308563 18.3434C0.0587036 18.4361 0.104713 18.5223 0.166206 18.5971C0.226541 18.6728 0.301329 18.7357 0.386218 18.7822C0.471107 18.8288 0.564401 18.8579 0.66067 18.8681C0.756938 18.8782 0.854258 18.869 0.946965 18.8412C1.03967 18.8133 1.12591 18.7673 1.20067 18.7058C1.93005 18.1179 3.39978 17.1164 5.06585 17.051C6.99308 16.9747 8.26701 17.53 9.61728 18.1179C10.9458 18.6951 12.3066 19.2938 14.2667 19.3265C14.4845 19.3265 14.7023 19.3265 14.931 19.3158C16.858 19.2394 18.4914 18.2923 19.3078 17.7367C19.6453 17.5083 19.7217 17.051 19.4929 16.7135C19.2644 16.3867 18.7962 16.2997 18.4697 16.5394L18.4694 16.5391Z" fill="#2673DD"/>
<path fill-rule="evenodd" clip-rule="evenodd" d="M10.4774 16.0497L10.4991 16.0605C11.3594 16.4089 12.1868 16.7464 13.1559 16.9315C15.8452 15.7013 17.7181 12.99 17.7181 9.84323C17.7288 5.55323 14.2231 2.05823 9.93309 2.05823C5.64282 2.05823 2.12586 5.55323 2.12586 9.84323C2.1234 11.727 2.80882 13.5468 4.05336 14.9609C4.29283 14.9172 4.53229 14.8955 4.78274 14.8739C7.26524 14.7322 8.9747 15.4291 10.4774 16.0497ZM11.0326 10.8016C10.8914 10.66 10.7252 10.5456 10.5425 10.4641C10.3469 10.3658 10.1289 10.2897 9.90041 10.2134C9.67811 10.142 9.45992 10.0584 9.24684 9.96296C8.78961 9.78885 8.40845 9.52742 8.09291 9.15725C7.77684 8.79805 7.63541 8.34082 7.63541 7.78555C7.6464 7.42608 7.72274 7.11055 7.85318 6.83814C7.99488 6.566 8.17997 6.33725 8.41943 6.16314C8.65916 5.98903 8.92032 5.84707 9.21443 5.76028C9.51859 5.67199 9.83388 5.62797 10.1506 5.62957H10.1726C10.6734 5.64028 11.1197 5.73832 11.4899 5.91269C11.8584 6.09667 12.2084 6.31543 12.5353 6.566L11.7623 7.67653C11.5445 7.51314 11.3048 7.38242 11.0653 7.27367C10.8149 7.16466 10.5101 7.09957 10.1509 7.0776C9.87845 7.05591 9.628 7.11028 9.42122 7.241C9.20345 7.36073 9.09443 7.54582 9.09443 7.78528C9.09443 7.92698 9.12711 8.05769 9.20345 8.16644C9.27979 8.27546 9.38854 8.3735 9.51925 8.44957C9.64997 8.53662 9.7914 8.59126 9.93282 8.65662C10.0745 8.711 10.2269 8.76537 10.3576 8.82001C10.6408 8.91778 10.9239 9.03751 11.2068 9.17894C11.481 9.31754 11.737 9.48946 11.9691 9.69082C12.1978 9.88689 12.3719 10.1264 12.5134 10.3985C12.6441 10.6709 12.7094 10.9867 12.6987 11.3569C12.6877 11.7161 12.6114 12.0426 12.4809 12.315C12.3393 12.5981 12.1434 12.8266 11.9037 13.0227C11.6533 13.2188 11.3701 13.3602 11.0436 13.4582C10.7168 13.5563 10.3576 13.5999 9.97648 13.5889C9.61729 13.5782 9.29077 13.5346 8.99666 13.4363C8.70256 13.3385 8.43041 13.2295 8.19068 13.0988C7.97546 12.9837 7.77137 12.8489 7.58104 12.6962C7.40693 12.5762 7.2872 12.4674 7.21086 12.3801L8.00586 11.2589C8.27673 11.5169 8.58972 11.7268 8.93131 11.8795C9.2905 12.0536 9.66068 12.1406 10.0418 12.1406C10.3686 12.1516 10.6408 12.0753 10.8802 11.9339C11.1197 11.7924 11.2284 11.5747 11.2397 11.3022C11.2397 11.0955 11.1743 10.9321 11.0326 10.8014V10.8016ZM27.4196 9.80975C27.1909 9.60296 26.9404 9.43957 26.6573 9.28716C26.3744 9.14573 26.0913 9.01501 25.7975 8.91698C25.6555 8.8626 25.5141 8.80796 25.3617 8.75358C25.2122 8.70239 25.0696 8.63294 24.9371 8.5468C24.8064 8.47046 24.7084 8.37269 24.621 8.26367C24.5428 8.15201 24.5011 8.01886 24.5016 7.88251C24.5123 7.64305 24.6213 7.45796 24.8284 7.33823C25.0459 7.2185 25.2856 7.16412 25.5684 7.18555C25.9279 7.20751 26.2434 7.27287 26.4942 7.38162C26.7446 7.50162 26.9841 7.63207 27.2018 7.79546L27.9859 6.68492C27.6591 6.4235 27.2999 6.20573 26.9297 6.02064C26.5595 5.83555 26.1127 5.7485 25.6121 5.73751H25.5904C25.2636 5.7268 24.9478 5.77019 24.643 5.86823C24.3382 5.96626 24.0767 6.09698 23.8373 6.27108C23.5978 6.44519 23.4127 6.67394 23.271 6.94608C23.1296 7.21849 23.0533 7.54501 23.0426 7.90448C23.0316 8.45975 23.184 8.91698 23.4998 9.27617C23.812 9.63606 24.2085 9.9129 24.654 10.0819C24.8608 10.1692 25.0785 10.256 25.3183 10.3216C25.5468 10.3977 25.7645 10.485 25.9606 10.5828C26.1564 10.6808 26.3198 10.7898 26.4508 10.9313C26.5812 11.073 26.6573 11.2361 26.6463 11.4429C26.6356 11.7153 26.5159 11.933 26.2874 12.0745C26.0586 12.2162 25.7755 12.2922 25.449 12.2815C25.0614 12.27 24.68 12.1811 24.3272 12.0201C23.968 11.846 23.6522 11.6389 23.3908 11.3995L22.5851 12.521C22.6614 12.5973 22.7921 12.7171 22.9555 12.8585C23.1458 13.0113 23.3499 13.1462 23.5651 13.2614C23.8046 13.3921 24.0768 13.5011 24.3709 13.5989C24.6757 13.6969 25.0025 13.7405 25.3619 13.7515C25.7428 13.7622 26.102 13.7189 26.4288 13.6208C26.7556 13.5228 27.0494 13.3811 27.2999 13.1853C27.5473 12.9929 27.7482 12.7473 27.8878 12.4666C28.0293 12.1835 28.1056 11.8567 28.1166 11.4975C28.1273 11.1273 28.0619 10.8005 27.9205 10.5284C27.8225 10.2453 27.6484 10.0058 27.4196 9.80975ZM47.1601 9.51671C47.2255 9.45135 47.3018 9.36403 47.3672 9.28796C47.4433 9.20091 47.5086 9.10314 47.563 8.97216C47.6284 8.84171 47.672 8.70001 47.7157 8.52591C47.7484 8.3518 47.7701 8.14475 47.7701 7.8943C47.7699 7.65242 47.7256 7.41259 47.6393 7.18662C47.5547 6.95896 47.4293 6.74864 47.2692 6.566C47.1058 6.38091 46.9207 6.21751 46.6919 6.0868C46.4546 5.95021 46.1912 5.8649 45.9189 5.83635C45.7338 5.81466 45.527 5.79296 45.3092 5.79296C45.0805 5.78198 44.852 5.78198 44.5906 5.78198L42.4783 5.79269V13.763H45.3963C45.6684 13.763 45.8755 13.763 46.0496 13.7523C46.3437 13.7197 46.6159 13.6543 46.8773 13.5453C47.1275 13.4365 47.3672 13.2841 47.5523 13.088C47.7484 12.892 47.9008 12.6525 48.0205 12.3911C48.1365 12.1002 48.1956 11.7898 48.1946 11.4766C48.1946 10.943 48.0859 10.5185 47.8788 10.2027C47.672 9.87591 47.4325 9.64742 47.1601 9.51671ZM43.8066 7.15394H44.4925C44.7213 7.15394 44.9281 7.15394 45.1025 7.16466C45.2766 7.17564 45.44 7.18662 45.5597 7.19733C45.8318 7.23001 46.0496 7.31733 46.213 7.45876C46.3871 7.58948 46.4742 7.78555 46.4634 8.02501C46.4742 8.32983 46.3764 8.55858 46.213 8.6893C46.0386 8.81974 45.8209 8.90707 45.5487 8.93948C45.418 8.96144 45.2656 8.97216 45.0915 8.97216H43.7959V7.15394H43.8066ZM46.5505 12.0102C46.3544 12.195 46.0386 12.304 45.6031 12.326C45.4726 12.3367 45.3092 12.3474 45.0915 12.3367H43.7959V10.2788H44.4599C44.6669 10.2788 44.8627 10.2788 45.0478 10.268C45.2329 10.2573 45.3963 10.2573 45.527 10.268C45.9516 10.2897 46.2674 10.3878 46.4961 10.5619C46.7246 10.736 46.8446 10.9757 46.8446 11.2915C46.8553 11.5854 46.7573 11.8251 46.5505 12.0102ZM34.6606 9.47305C34.5082 9.05948 34.2904 8.70001 34.0073 8.41689C33.7351 8.12305 33.4084 7.90528 33.0382 7.7526C32.6689 7.59968 32.2727 7.522 31.873 7.52412C31.3724 7.52412 30.9259 7.61117 30.5447 7.76358C30.1528 7.92698 29.826 8.15546 29.5649 8.43858C29.3034 8.72171 29.1074 9.04849 28.9659 9.41867C28.8352 9.78885 28.7699 10.1917 28.7699 10.6163C28.7699 11.0845 28.8569 11.5093 29.0203 11.9012C29.1796 12.2718 29.4088 12.6083 29.6953 12.8922C29.9786 13.1663 30.3111 13.3842 30.6754 13.5346C31.0456 13.676 31.4375 13.7523 31.8513 13.7523C32.2325 13.7523 32.57 13.7197 32.8531 13.6543C33.1133 13.6057 33.3685 13.5327 33.6151 13.4365C33.8243 13.3419 34.0247 13.2289 34.2141 13.099C34.3884 12.9793 34.5516 12.8593 34.715 12.7396L34.0073 11.7488C33.9093 11.8251 33.8112 11.9014 33.6915 11.9882C33.5608 12.0753 33.3974 12.1516 33.2233 12.228C33.0492 12.293 32.8531 12.3477 32.6243 12.3914C32.4066 12.4238 32.1561 12.4457 31.884 12.4347C31.7304 12.4221 31.5777 12.4003 31.4268 12.3694C31.2655 12.3267 31.1114 12.2607 30.9693 12.1733C30.8261 12.0721 30.6947 11.9553 30.5774 11.8251C30.4576 11.6834 30.3706 11.509 30.3159 11.3022L30.3052 11.2479H34.8457L34.8567 10.8997C34.8784 10.3551 34.813 9.88689 34.6606 9.47305ZM30.2616 10.0503L30.2726 10.0066C30.2943 9.83251 30.3486 9.74519 30.4033 9.62546L30.4359 9.5601C30.5289 9.40414 30.6508 9.26739 30.7951 9.15725C30.9375 9.04894 31.1006 8.97116 31.2743 8.92876C31.4594 8.87412 31.6445 8.84144 31.8296 8.84144C32.2651 8.85242 32.6243 8.97216 32.8858 9.21189C33.0165 9.32064 33.1252 9.42966 33.2123 9.54939C33.2996 9.66912 33.354 9.81055 33.3757 9.99564L33.3867 10.0503H30.2616ZM40.0284 8.13376L39.9414 8.05769C39.7563 7.8943 39.5166 7.76358 39.2444 7.67653C38.983 7.5785 38.6675 7.52385 38.308 7.52385C37.9051 7.52385 37.524 7.60019 37.1758 7.75287C36.8315 7.89381 36.5228 8.10945 36.272 8.38421C36.0106 8.65635 35.8145 8.99412 35.6621 9.386C35.5207 9.76716 35.4443 10.2027 35.4443 10.6816C35.4443 11.1064 35.5207 11.5093 35.6621 11.8795C35.8145 12.2497 36.0106 12.5652 36.272 12.8486C36.5323 13.121 36.8381 13.3458 37.1758 13.5129C37.524 13.665 37.8942 13.7414 38.308 13.7414C38.6675 13.7414 38.983 13.6977 39.2444 13.5997C39.5166 13.5019 39.7563 13.3602 39.9414 13.1861L40.0284 13.099V13.7304H41.4331V7.69823H40.0284V8.13376ZM39.8977 11.4003C39.8107 11.6073 39.6909 11.7924 39.5492 11.9339C39.4078 12.0755 39.2444 12.1733 39.0593 12.2497C38.8739 12.3147 38.6789 12.3479 38.4824 12.3477C38.0359 12.3477 37.6657 12.195 37.3609 11.9012C37.0558 11.5854 36.9143 11.1718 36.9143 10.6599C36.9143 10.159 37.0667 9.74519 37.3609 9.41867C37.6657 9.09189 38.0359 8.9285 38.4824 8.9285C38.6892 8.9285 38.8852 8.97216 39.0593 9.04849C39.2554 9.12457 39.4185 9.23332 39.5492 9.386C39.6909 9.52742 39.8107 9.71278 39.8977 9.94126C39.9848 10.159 40.0284 10.3985 40.0284 10.6816C40.0284 10.943 39.9848 11.1825 39.8977 11.4003ZM53.1925 8.13376L53.1055 8.05769C52.9204 7.8943 52.6809 7.76358 52.4085 7.67653C52.1474 7.5785 51.8316 7.52385 51.4724 7.52385C51.0695 7.52385 50.6884 7.60019 50.3399 7.75287C49.9956 7.89381 49.6869 8.10945 49.4361 8.38421C49.1747 8.65635 48.9789 8.99412 48.8265 9.386C48.6848 9.76716 48.6087 10.2027 48.6087 10.6816C48.6087 11.1064 48.6848 11.5093 48.8265 11.8795C48.9789 12.2497 49.1747 12.5652 49.4361 12.8486C49.6964 13.1209 50.0023 13.3457 50.3399 13.5129C50.6884 13.665 51.0585 13.7414 51.4724 13.7414C51.8316 13.7414 52.1474 13.6977 52.4085 13.5997C52.6809 13.5019 52.9204 13.3602 53.1055 13.1861L53.1925 13.099V13.7304H54.5972V7.73091H53.1925V8.13376ZM53.0618 11.4003C52.9748 11.6073 52.855 11.7924 52.7136 11.9339C52.5719 12.0755 52.4085 12.1733 52.2234 12.2497C52.0381 12.3148 51.843 12.3479 51.6465 12.3477C51.2 12.3477 50.8298 12.195 50.525 11.9012C50.2201 11.5854 50.0784 11.1718 50.0784 10.6599C50.0784 10.159 50.2309 9.74519 50.525 9.41867C50.8298 9.09189 51.2 8.9285 51.6465 8.9285C51.8533 8.9285 52.0384 8.97216 52.2234 9.04849C52.4195 9.12457 52.5829 9.23332 52.7136 9.386C52.855 9.52742 52.9748 9.71278 53.0618 9.94126C53.1492 10.159 53.1925 10.3985 53.1925 10.6816C53.1925 10.943 53.1492 11.1825 53.0618 11.4003ZM64.854 10.3337L67.4128 7.53537H65.5617L63.4493 9.83278V5.69519H62.034V13.7523H63.4493V11.9234L63.9175 11.4005L65.7467 13.7523H67.4999L64.854 10.3337ZM60.7708 8.92876C60.64 8.55858 60.3899 8.23207 60.0304 7.95992C59.6712 7.68751 59.2137 7.54608 58.6694 7.54608C58.3863 7.54608 58.0922 7.58948 57.7984 7.6768C57.541 7.75386 57.3008 7.87952 57.0907 8.04698V7.73091H55.6641V13.7523H57.0907V10.5295C57.1014 10.3117 57.1234 10.1049 57.145 9.90885C57.1777 9.70207 57.2321 9.52769 57.3192 9.37528C57.4062 9.22287 57.5369 9.10314 57.7003 9.0051C57.8637 8.90707 58.0705 8.85242 58.3209 8.84171C58.6367 8.831 58.8872 8.91805 59.0833 9.08144C59.2791 9.25555 59.4098 9.47332 59.4751 9.75644C59.5078 9.88716 59.5295 10.0613 59.5515 10.279C59.5622 10.4858 59.5732 10.7906 59.5732 11.1938V13.7523H60.9778V10.8455C60.9796 10.5041 60.9687 10.1627 60.9451 9.82207C60.9249 9.51822 60.8663 9.21816 60.7708 8.92903V8.92876Z" fill="#EA5F00"/>
</svg>
