<svg width="68" height="12" viewBox="0 0 68 12" fill="none" xmlns="http://www.w3.org/2000/svg">
<g clip-path="url(#clip0_681_14568)">
<path fill-rule="evenodd" clip-rule="evenodd" d="M0.736014 8.97632C0.639412 8.97634 0.543752 8.95733 0.454497 8.92038C0.365241 8.88343 0.28414 8.82926 0.215823 8.76096C0.147507 8.69266 0.0933143 8.61157 0.0563408 8.52233C0.0193673 8.43308 0.000337056 8.33743 0.00033706 8.24082L0.00033706 2.88909C-0.00121396 2.79151 0.0166664 2.6946 0.0529368 2.60399C0.0892071 2.51339 0.143143 2.4309 0.211602 2.36135C0.280061 2.29179 0.361675 2.23655 0.451691 2.19885C0.541708 2.16114 0.638327 2.14172 0.735921 2.14172C0.833516 2.14172 0.930135 2.16114 1.02015 2.19885C1.11017 2.23655 1.19178 2.29179 1.26024 2.36135C1.3287 2.4309 1.38264 2.51339 1.41891 2.60399C1.45518 2.6946 1.47306 2.79151 1.47151 2.88909L1.47151 8.24082C1.47151 8.43589 1.39402 8.62296 1.25608 8.7609C1.11815 8.89883 0.931079 8.97632 0.736014 8.97632Z" fill="#9DDCF9"/>
<path fill-rule="evenodd" clip-rule="evenodd" d="M9.56298 8.9768C9.46635 8.97688 9.37065 8.95791 9.28135 8.92098C9.19206 8.88405 9.11091 8.82988 9.04255 8.76158C8.9742 8.69327 8.91997 8.61217 8.88298 8.5229C8.84598 8.43363 8.82694 8.33794 8.82694 8.24131V2.89385C8.82539 2.79627 8.84327 2.69936 8.87954 2.60875C8.91581 2.51815 8.96974 2.43567 9.0382 2.36611C9.10666 2.29655 9.18827 2.24131 9.27829 2.20361C9.36831 2.1659 9.46493 2.14648 9.56252 2.14648C9.66011 2.14648 9.75673 2.1659 9.84675 2.20361C9.93677 2.24131 10.0184 2.29655 10.0868 2.36611C10.1553 2.43567 10.2092 2.51815 10.2455 2.60875C10.2818 2.69936 10.2997 2.79627 10.2981 2.89385V8.24131C10.2981 8.4363 10.2206 8.62329 10.0828 8.7612C9.94492 8.89911 9.75797 8.97665 9.56298 8.9768Z" fill="#00ACDB"/>
<path fill-rule="evenodd" clip-rule="evenodd" d="M5.14956 11.1227C4.95455 11.1226 4.76755 11.0452 4.62961 10.9073C4.49167 10.7695 4.41408 10.5825 4.41388 10.3875V0.747179C4.41695 0.554114 4.4958 0.369996 4.63341 0.234551C4.77103 0.0991058 4.95637 0.0231934 5.14946 0.0231934C5.34255 0.0231934 5.5279 0.0991058 5.66552 0.234551C5.80313 0.369996 5.88198 0.554114 5.88505 0.747179V10.3875C5.8849 10.5825 5.80735 10.7695 5.66944 10.9073C5.53153 11.0452 5.34454 11.1226 5.14956 11.1227Z" fill="#0256A7"/>
<path fill-rule="evenodd" clip-rule="evenodd" d="M28.1341 2.63477C28.1336 2.50597 28.1837 2.38213 28.2736 2.28992C28.3635 2.19771 28.486 2.14451 28.6148 2.14178C28.6798 2.1408 28.7444 2.15288 28.8047 2.17731C28.865 2.20173 28.9197 2.238 28.9657 2.28397C29.0117 2.32994 29.048 2.38468 29.0725 2.44493C29.097 2.50519 29.1091 2.56974 29.1082 2.63477V8.39531C29.1105 8.45967 29.0998 8.52384 29.0766 8.58393C29.0535 8.64401 29.0183 8.69877 28.9734 8.74487C28.9284 8.79097 28.8745 8.82745 28.815 8.85211C28.7555 8.87676 28.6917 8.88908 28.6273 8.8883C28.5622 8.88931 28.4977 8.87724 28.4374 8.85282C28.3771 8.82841 28.3224 8.79213 28.2764 8.74616C28.2304 8.70018 28.1941 8.64543 28.1696 8.58517C28.1452 8.5249 28.1331 8.46034 28.1341 8.39531V2.63477Z" fill="#002855"/>
<path fill-rule="evenodd" clip-rule="evenodd" d="M31.7391 5.53749V5.56276C31.7391 7.1051 32.8143 8.09312 34.0415 8.09312C35.256 8.09312 36.4068 7.06831 36.4068 5.56276V5.53749C36.4068 4.03231 35.256 3.02013 34.0415 3.02013C32.776 3.02013 31.7391 3.95613 31.7391 5.53749ZM37.3432 8.39657C37.3445 8.46135 37.3328 8.52572 37.3089 8.58593C37.285 8.64614 37.2493 8.70098 37.2039 8.74723C37.1586 8.79349 37.1044 8.83023 37.0447 8.85532C36.985 8.8804 36.9208 8.89332 36.8561 8.89332C36.7913 8.89332 36.7271 8.8804 36.6674 8.85532C36.6077 8.83023 36.5535 8.79349 36.5082 8.74723C36.4628 8.70098 36.4271 8.64614 36.4032 8.58593C36.3793 8.52572 36.3677 8.46135 36.3689 8.39657V7.69305C35.8376 8.47741 35.0659 8.96408 33.864 8.96408C32.2957 8.96408 30.7392 7.72445 30.7392 5.57354V5.54827C30.7392 3.41129 32.2957 2.14546 33.864 2.14546C35.0786 2.14546 35.8631 2.61949 36.3689 3.35331V0.493481C36.3665 0.429139 36.3772 0.364981 36.4003 0.30489C36.4235 0.244799 36.4585 0.190025 36.5034 0.143884C36.5484 0.0977436 36.6022 0.0611954 36.6616 0.0364521C36.721 0.0117088 36.7849 -0.000715003 36.8493 -6.71786e-05C36.9143 -0.00104517 36.979 0.0110542 37.0393 0.0355134C37.0996 0.0599726 37.1544 0.0962936 37.2004 0.142323C37.2464 0.188352 37.2827 0.243151 37.3071 0.303472C37.3316 0.363793 37.3436 0.428406 37.3426 0.493481L37.3432 8.39657Z" fill="#002855"/>
<path fill-rule="evenodd" clip-rule="evenodd" d="M62.655 8.13003C62.5999 8.08884 62.5552 8.03534 62.5245 7.97382C62.4938 7.91229 62.4779 7.84443 62.4781 7.77566C62.4798 7.66329 62.5261 7.5562 62.6067 7.4779C62.6873 7.39961 62.7957 7.35653 62.9081 7.35812C62.9945 7.35601 63.0791 7.38282 63.1485 7.4343C63.7534 7.87151 64.477 8.11418 65.2231 8.13003C66.0076 8.13003 66.577 7.72531 66.577 7.09239V7.06749C66.577 6.40967 65.8053 6.15695 64.9449 5.91538C63.9203 5.62438 62.7815 5.2702 62.7815 4.06866V4.04302C62.7815 2.9173 63.7177 2.17065 65.0081 2.17065C65.7386 2.1864 66.4545 2.3776 67.0956 2.72813C67.1676 2.76871 67.2276 2.82743 67.2697 2.89845C67.3119 2.96946 67.3347 3.05028 67.3359 3.13285C67.3342 3.24525 67.2879 3.35238 67.2072 3.43068C67.1266 3.50897 67.0181 3.55204 66.9057 3.5504C66.8311 3.55018 66.7576 3.53283 66.6907 3.49967C66.174 3.18818 65.5862 3.014 64.9832 2.99367C64.2111 2.99367 63.7177 3.39839 63.7177 3.94267V3.96794C63.7177 4.58767 64.5275 4.82794 65.4004 5.09367C66.4124 5.39712 67.5002 5.78939 67.5002 6.96603V6.99093C67.5002 8.23112 66.4755 8.95211 65.1724 8.95211C64.2701 8.93511 63.3934 8.64883 62.655 8.13003Z" fill="#002855"/>
<path fill-rule="evenodd" clip-rule="evenodd" d="M61.0738 4.89947C61.0738 3.42811 59.7831 2.14648 58.227 2.14648C57.8527 2.14641 57.482 2.22008 57.1361 2.36328C56.7902 2.50648 56.4759 2.7164 56.2112 2.98107C55.9465 3.24574 55.7365 3.55996 55.5932 3.9058C55.4499 4.25163 55.3761 4.62231 55.3761 4.99665V8.36769C55.375 8.43564 55.3877 8.50311 55.4132 8.56609C55.4387 8.62908 55.4766 8.68629 55.5247 8.73433C55.5728 8.78238 55.63 8.82028 55.693 8.84578C55.756 8.87128 55.8234 8.88387 55.8914 8.88279C55.9586 8.88352 56.0253 8.87059 56.0874 8.84478C56.1495 8.81898 56.2057 8.78085 56.2526 8.73269C56.2995 8.68452 56.3361 8.62734 56.3603 8.5646C56.3844 8.50186 56.3956 8.43487 56.3931 8.36769V6.85359V4.89928C56.3931 4.41364 56.586 3.94789 56.9294 3.60449C57.2728 3.26109 57.7386 3.06817 58.2242 3.06817C58.7099 3.06817 59.1756 3.26109 59.519 3.60449C59.8624 3.94789 60.0553 4.41364 60.0553 4.89928V8.36769C60.054 8.43533 60.0662 8.50256 60.0912 8.56543C60.1162 8.6283 60.1535 8.68556 60.2009 8.73385C60.2483 8.78215 60.3048 8.82051 60.3672 8.8467C60.4296 8.87289 60.4966 8.88638 60.5642 8.88638C60.6319 8.88638 60.6988 8.87289 60.7612 8.8467C60.8236 8.82051 60.8802 8.78215 60.9275 8.73385C60.9749 8.68556 61.0122 8.6283 61.0372 8.56543C61.0622 8.50256 61.0744 8.43533 61.0731 8.36769C61.0731 8.36769 61.0833 5.21648 61.0738 4.89947Z" fill="#002855"/>
<path fill-rule="evenodd" clip-rule="evenodd" d="M53.6385 4.82825H53.6363C53.5724 4.11955 53.2457 3.46037 52.7206 2.98018C52.1955 2.49999 51.5098 2.23349 50.7982 2.23303H50.3619C50.2412 2.23545 50.1264 2.28508 50.0419 2.37126C49.9574 2.45744 49.9101 2.5733 49.9101 2.69397C49.9101 2.81464 49.9574 2.9305 50.0419 3.01668C50.1264 3.10286 50.2412 3.15248 50.3619 3.15491H50.796C51.8074 3.15491 52.7025 3.97476 52.7025 4.98583V5.06833C52.0494 4.87738 51.3717 4.78347 50.6912 4.7896C49.034 4.7896 47.8951 5.52342 47.8951 6.90223V6.9275C47.8951 8.2686 49.0777 8.96432 50.2922 8.96432C50.7729 8.97345 51.2479 8.85942 51.6721 8.63306C52.0962 8.40671 52.4554 8.07557 52.7154 7.67117V8.42041C52.7154 8.54293 52.764 8.66043 52.8507 8.74707C52.9373 8.8337 53.0548 8.88237 53.1773 8.88237C53.2998 8.88237 53.4173 8.8337 53.504 8.74707C53.5906 8.66043 53.6393 8.54293 53.6393 8.42041V4.82769L53.6385 4.82825ZM50.4665 8.0902C49.5809 8.0902 48.8822 7.71261 48.8822 6.89034V6.8647C48.8822 6.04242 49.5653 5.51115 50.7923 5.51115C51.4418 5.52921 52.087 5.62275 52.715 5.78989V5.79138C52.715 6.98975 51.5948 8.0902 50.4665 8.0902Z" fill="#002855"/>
<path fill-rule="evenodd" clip-rule="evenodd" d="M47.7112 2.69278C47.7112 2.57046 47.6626 2.45315 47.5761 2.36665C47.4896 2.28016 47.3723 2.23157 47.25 2.23157H46.935C46.1791 2.23162 45.4542 2.53192 44.9197 3.06642C44.3852 3.60092 44.0849 4.32584 44.0848 5.08174V8.36729C44.0838 8.43523 44.0964 8.50268 44.1219 8.56565C44.1474 8.62862 44.1853 8.68583 44.2334 8.73387C44.2814 8.78191 44.3386 8.81982 44.4016 8.84533C44.4646 8.87084 44.532 8.88345 44.5999 8.88239C44.6672 8.88315 44.7339 8.87023 44.796 8.84444C44.8581 8.81865 44.9143 8.78051 44.9612 8.73235C45.0081 8.68418 45.0447 8.62699 45.0689 8.56424C45.093 8.50148 45.1042 8.43448 45.1017 8.36729V6.8532V4.98436C45.1017 4.49879 45.2946 4.03311 45.638 3.68976C45.9813 3.34641 46.447 3.15349 46.9326 3.15344H46.9352H47.2498C47.372 3.15349 47.4893 3.105 47.5758 3.01862C47.6624 2.93224 47.711 2.81504 47.7112 2.69278Z" fill="#002855"/>
<path fill-rule="evenodd" clip-rule="evenodd" d="M42.4679 2.66903C42.4679 2.61252 42.4568 2.55656 42.4352 2.50435C42.4136 2.45213 42.3819 2.40469 42.3419 2.36472C42.302 2.32476 42.2546 2.29305 42.2023 2.27142C42.1501 2.24979 42.0942 2.23866 42.0377 2.23866H40.33V0.521647C40.3305 0.388885 40.2801 0.26098 40.1891 0.164261C40.0982 0.0675409 39.9736 0.00936639 39.8411 0.0017116C39.7766 0.00149947 39.7128 0.0141746 39.6534 0.0389914C39.5939 0.0638081 39.54 0.100265 39.4949 0.146218C39.4497 0.19217 39.4142 0.24669 39.3904 0.306569C39.3666 0.366448 39.3551 0.430477 39.3564 0.494888V7.09164C39.3564 8.41991 40.1532 8.93873 41.2033 8.93873C41.5323 8.94444 41.8592 8.88429 42.1646 8.76183C42.2447 8.73524 42.3146 8.6844 42.3645 8.61635C42.4145 8.5483 42.442 8.4664 42.4433 8.382C42.4424 8.2716 42.398 8.16599 42.3199 8.08796C42.2418 8.00992 42.1362 7.9657 42.0258 7.96483C41.8314 8.01567 41.632 8.04521 41.4312 8.05291C40.7733 8.05291 40.3309 7.76191 40.3309 6.96509V3.09921H42.0386C42.1525 3.09897 42.2617 3.05353 42.3422 2.97289C42.4227 2.89224 42.4679 2.78296 42.4679 2.66903Z" fill="#002855"/>
<path fill-rule="evenodd" clip-rule="evenodd" d="M23.389 2.14172C22.9465 2.14153 22.5107 2.24915 22.1192 2.45527C21.7276 2.66139 21.3922 2.9598 21.142 3.32468C20.8944 2.96149 20.5618 2.66426 20.1732 2.45885C19.7846 2.25343 19.3517 2.14604 18.9121 2.146C18.1886 2.14605 17.4948 2.43347 16.9832 2.94503C16.4717 3.4566 16.1843 4.15043 16.1842 4.87389V8.39544C16.1832 8.46051 16.1952 8.52512 16.2197 8.58543C16.2441 8.64574 16.2804 8.70053 16.3264 8.74653C16.3724 8.79254 16.4272 8.82882 16.4876 8.85323C16.5479 8.87764 16.6125 8.88968 16.6776 8.88862C16.742 8.8894 16.8059 8.87708 16.8654 8.85241C16.9249 8.82774 16.9788 8.79124 17.0237 8.74512C17.0687 8.699 17.1038 8.64422 17.127 8.58411C17.1502 8.52401 17.1609 8.45982 17.1585 8.39544V4.78061C17.1585 4.31587 17.3431 3.87016 17.6717 3.54153C18.0003 3.21291 18.4461 3.02829 18.9108 3.02829C19.3755 3.02829 19.8213 3.21291 20.1499 3.54153C20.4785 3.87016 20.6631 4.31587 20.6631 4.78061V7.99183V7.99332C20.6631 8.12254 20.7145 8.24647 20.8058 8.33785C20.8972 8.42922 21.0211 8.48055 21.1503 8.48055C21.2796 8.48055 21.4035 8.42922 21.4949 8.33785C21.5862 8.24647 21.6376 8.12254 21.6376 7.99332L21.6346 4.77559C21.6346 4.3108 21.8192 3.86504 22.1479 3.53638C22.4766 3.20773 22.9223 3.02309 23.3871 3.02309C23.8519 3.02309 24.2977 3.20773 24.6263 3.53638C24.955 3.86504 25.1396 4.3108 25.1396 4.77559V8.39098C25.1396 8.52016 25.1909 8.64404 25.2823 8.73538C25.3736 8.82672 25.4975 8.87803 25.6267 8.87803C25.7558 8.87803 25.8797 8.82672 25.9711 8.73538C26.0624 8.64404 26.1137 8.52016 26.1137 8.39098L26.1167 4.87389C26.1143 4.15079 25.8263 3.45791 25.3154 2.94618C24.8045 2.43444 24.1121 2.1453 23.389 2.14172Z" fill="#002855"/>
</g>
<defs>
<clipPath id="clip0_681_14568">
<rect width="67.5" height="11.1227" fill="white"/>
</clipPath>
</defs>
</svg>
